<?xml version="1.0" encoding="utf-8"?>
<svg version="1.2" baseProfile="tiny-ps" xmlns="http://www.w3.org/2000/svg" width="1179px" height="2556px" viewBox="0 0 1179 2556" preserveAspectRatio="xMidYMid meet">
 <g fill="#000000">
  <path d="M0 1278 l0 -1278 589.5 0 589.5 0 0 1278 0 1278 -589.5 0 -589.5 0 0 -1278z m404.6 122 c1.2 -3 2.5 -6.4 2.8 -7.4 0.4 -1.6 0.7 -1.7 2 -0.6 1.4 1.1 1.6 0.7 1.6 -3.2 0 -4 0.5 -4.8 5.6 -9.8 17.7 -17.4 28.9 -47 31.9 -85 0.8 -10 -1.7 -30.7 -5.3 -45 -6.8 -26.2 -18.7 -45.5 -35.3 -56.9 -5.1 -3.5 -12.5 -7.1 -14.5 -7.1 -0.2 0 1.5 1.7 3.7 3.7 2.3 2.1 5.2 5.5 6.5 7.5 2.4 3.7 7.4 17.4 7.4 20 0 0.7 -2 3.8 -4.5 6.8 -4.8 5.9 -5.3 7 -3.1 7 1.2 0 1 1.1 -0.7 6 -1.2 3.3 -2.5 6 -2.8 6 -0.3 0 -1.3 -1.8 -2.2 -4 -1.1 -2.8 -2 -3.8 -3 -3.4 -1.2 0.4 -1.1 1.4 0.7 6 1.8 4.7 2.4 5.4 4.5 5.2 2 -0.2 3 -1.5 4.7 -5.8 1.2 -3 2.5 -6.4 2.8 -7.4 0.4 -1.6 0.7 -1.7 2 -0.6 1.3 1 1.6 1 1.6 -0.4 0 -0.9 0.6 -1.6 1.4 -1.6 5.2 0 6.3 85.5 1.5 120 -2.2 16.4 -7.6 30.6 -13.9 36.9 -3.3 3.3 -4.5 3.7 -5.5 2.1 -1 -1.6 -3.6 0.1 -3 2 0.5 1.5 -0.4 2 -4.6 3 -7.1 1.7 -16.9 0.8 -22.7 -2.2 -8.7 -4.5 -14.9 -15.6 -19 -34.3 -4.1 -18.6 -4.7 -27.3 -4.7 -71 0 -39 0.2 -42.9 2.2 -54.5 4.1 -23 7.9 -33.2 15.1 -41.2 4.3 -4.8 2.7 -4.2 -7.3 2.8 -26.1 18.3 -43.6 63.5 -41.1 106.2 1.2 20.4 5 37.3 12 53.2 5.3 12.1 10.6 19.8 19.2 28.1 14.1 13.4 28.7 18.5 44.5 15.5 4.1 -0.8 7.7 -1.2 8 -1 0.4 0.2 1.5 2.7 2.5 5.4 1.6 4.4 2.1 5.1 4.3 4.8 2 -0.2 2.9 -1.4 4.7 -5.8z m422.8 -7.1 c6.9 -2.5 7 -3.4 0.1 -1.4 -5.7 1.8 -19.3 2 -25 0.4 -9.1 -2.5 -16.9 -10.8 -20 -21.1 -1.6 -5.5 -3.1 -32 -1.7 -30 0.5 0.8 2 1.2 3.3 1 1.7 -0.2 2.8 -1.6 4.5 -5.8 1.2 -3 2.5 -6.4 2.8 -7.4 0.4 -1.6 0.7 -1.7 2 -0.6 1.4 1.1 1.6 0.4 1.6 -6.5 0 -4.3 -0.2 -7.6 -0.4 -7.4 -2.4 2.4 -8.6 10.5 -8.6 11.1 0 0.5 0.6 0.8 1.4 0.8 1.2 0 1 1.1 -0.7 6 -1.2 3.3 -2.5 6 -2.8 6 -0.4 0 -1.4 -1.9 -2.3 -4.3 -1.4 -3.8 -1.6 -11.7 -1.6 -71.3 0 -63.4 0.1 -67.2 1.9 -70.6 2.4 -4.8 2.2 -4.8 -13.7 -4.7 -10.4 0 -25 1.3 -20.5 1.8 0.7 0 1.9 1.4 2.7 2.9 1.2 2.4 1.5 15.4 1.9 82.3 0.4 86 0.2 82.7 6 95.1 4.7 10.2 15.8 19.9 27.5 24 11.3 4 30.6 3.9 41.6 -0.3z m-598.2 -95.1 c-0.1 -53 0 -97.7 0.3 -99.4 0.3 -1.8 1.7 -4.8 3 -6.8 l2.4 -3.6 -18.5 0 -18.5 0 2.3 3.1 2.3 3.1 0 99.9 0 99.9 13.5 0 13.5 0 -0.3 -96.2z m64.8 78.5 l-0.1 -17.8 -3.2 7.5 c-4.8 11.2 -6.2 13.4 -11.3 17.9 -5 4.3 -12.5 7.6 -20.7 9 -3.9 0.6 0.1 0.9 15.1 1 l20.2 0.1 0 -17.7z m205.3 16.7 c-1.2 -0.5 -2.5 -1.9 -2.8 -3.2 -0.3 -1.3 -0.4 -23.9 -0.3 -50.3 l0.3 -48 5.1 -0.3 c4.3 -0.2 5.6 0.1 8.3 2.4 4.2 3.5 5.1 5.4 13.2 28 15.9 44.8 21.8 58.5 27.8 64.7 5.7 6.1 9.7 7.7 19.2 7.7 l8.1 0 -3 -2.8 c-4.2 -4 -7 -9.9 -17.2 -37.3 -19.2 -51.3 -18.1 -48.8 -23.2 -54.4 -3.4 -3.7 -4.8 -6.1 -4.8 -8.1 0 -2.7 0.6 -3.1 7.5 -5.7 17.1 -6.4 26.8 -19.6 29.5 -39.9 1.2 -8.9 0.7 -14.2 -2.5 -25.2 -5.2 -17.9 -22.5 -30.9 -42.5 -32.1 -6.2 -0.4 -6.9 -0.3 -3.7 0.5 11.3 2.9 17.9 11.1 20.7 25.7 1.4 7.3 2.5 34.5 1.5 37 -0.7 1.7 -0.8 1.7 -1.4 0 -0.5 -1.4 -1.3 -0.8 -4.6 3.3 -4.7 5.9 -5.2 7 -3.2 7 1.3 0 1.2 0.9 -0.6 6 -1.2 3.3 -2.5 6 -2.8 6 -0.3 0 -1.3 -1.8 -2.2 -4 -1.1 -2.8 -2 -3.8 -3 -3.4 -1.2 0.4 -1.1 1.4 0.7 6 1.8 4.7 2.4 5.4 4.5 5.2 2 -0.2 3 -1.5 4.7 -5.8 1.2 -3 2.5 -6.4 2.8 -7.4 0.4 -1.7 0.7 -1.7 2.1 -0.6 1.2 1 1.5 2.4 1.2 4.7 -0.8 4.6 -3.7 10.3 -5.3 10.3 -0.8 0 -1.4 0.6 -1.4 1.4 0 2.4 -5.8 6.5 -11.5 8.1 -3.5 1.1 -8.4 1.5 -14.6 1.3 l-9.4 -0.3 0 -51 0 -51.1 -10 0.2 c-5.5 0.2 -12.6 0.3 -15.7 0.3 l-5.7 0.1 2.4 2.5 2.5 2.4 0 98.4 c0 102.2 0.1 100.6 -4 102 -0.8 0.3 6.8 0.5 17 0.6 11.8 0 17.7 -0.3 16.3 -0.9z m153.2 0 c8.9 -1.3 25 -7.1 34 -12.4 19.4 -11.4 33.8 -35.1 39.1 -64.6 2.5 -13.5 2.2 -39.1 -0.5 -52.5 -5.2 -26.2 -17.3 -47.9 -33.4 -60.3 -9.2 -7.1 -23.7 -13.4 -33.7 -14.7 l-4.5 -0.5 5.2 1.5 c15.6 4.4 25.5 14.6 32.2 32.9 6.2 17.4 6.6 21.2 6.6 72.6 0 50.2 0 50.6 -5.7 65.6 -7.2 19.5 -22.9 30.2 -46.6 32 l-9.2 0.7 0 -102.6 0 -102.6 6.3 -0.4 c3.4 -0.2 -2.2 -0.4 -12.4 -0.5 -10.3 -0.1 -20.1 0.1 -21.8 0.4 -3.1 0.6 -3.1 0.7 -1.4 2.6 1.7 1.9 1.8 7.6 2.1 100.6 0.2 87.4 0.1 98.8 -1.3 100.8 l-1.5 2.4 19.7 0 c10.9 0 23 -0.5 26.8 -1z m260.5 -1.2 c-5.8 -4 -7.1 -6.7 -7.7 -15.7 -0.4 -6 -0.3 -8.1 0.6 -8.1 0.7 0 1.8 1.4 2.4 3 0.9 2.5 1.7 3 3.6 2.8 2 -0.2 3 -1.5 4.7 -5.8 1.2 -3 2.5 -6.4 2.8 -7.4 0.4 -1.6 0.7 -1.7 2 -0.6 1.4 1.1 1.6 0.4 1.6 -6.5 0 -4.3 -0.2 -7.6 -0.4 -7.4 -2.4 2.4 -8.6 10.5 -8.6 11.1 0 0.5 0.6 0.8 1.4 0.8 1.2 0 1 1.1 -0.7 6 -1.2 3.3 -2.5 6 -2.8 6 -0.3 0 -1.3 -1.8 -2.2 -4 -1.1 -2.9 -2 -3.8 -3.1 -3.4 -1 0.4 -1.6 0.1 -1.6 -0.9 0 -0.8 0.6 -1.7 1.3 -2 1 -0.3 1 -0.9 0 -2.6 -1 -1.6 -1.3 -17.8 -1.3 -71.6 l0 -69.6 3.8 0.3 3.7 0.3 44.3 89 c32.9 66.1 44.6 88.6 45.3 87.5 0.5 -0.9 0.9 -38.3 0.8 -97.5 -0.2 -103.8 -0.4 -100 5 -105.4 l2.1 -2.1 -8.9 0 -8.9 0 2.8 3 c1.8 1.9 3.3 5 4 8.3 0.6 3.3 1.1 27.1 1.3 65 l0.2 59.7 -3.7 0 -3.7 0 -9.9 -20.2 c-5.4 -11.2 -14.5 -30.2 -20.3 -42.3 -5.7 -12.1 -16.1 -33.6 -23.1 -47.7 -10.4 -21 -13.1 -25.8 -14.8 -25.8 -1.1 0 -2 -0.5 -2 -1.1 0 -0.5 -0.6 -0.7 -1.2 -0.3 -2 1.3 -19.2 1.2 -20 0 -0.5 -0.8 -1.1 -0.7 -2 0.2 -0.6 0.6 -2.3 1.2 -3.7 1.2 l-2.4 0 2 2.3 c5.5 6 5.3 2.5 5.3 82 0 55.7 -0.3 73.6 -1.2 74.5 -0.9 0.9 -0.9 1.5 0 2.4 0.8 0.8 1.2 6.2 1.2 17.8 0 18.7 -0.9 21.9 -7.1 25.2 l-3.4 1.8 12.9 0 12.9 0 -3.3 -2.2z m-520.4 -5.9 c0.3 -0.6 0.2 -1.5 -0.2 -1.9 -1.2 -1.2 -3.8 0.5 -3 1.9 0.9 1.4 2.3 1.4 3.2 0z m452 -4.1 l2.9 -3.3 -3.2 2.9 c-1.8 1.7 -3.3 3.1 -3.3 3.3 0 0.8 0.8 0.1 3.6 -2.9z m-454.3 -2.4 c-0.3 -0.8 -0.9 -1.4 -1.3 -1.4 -1.3 0 -2.2 1.9 -1.5 3 0.9 1.4 3.4 0 2.8 -1.6z m463.9 -12.3 l2.3 -5.6 0.5 -82.5 0.5 -82.5 2.3 -3.7 c1.2 -2 2.8 -3.9 3.5 -4.2 0.7 -0.2 -2.8 -0.5 -7.7 -0.5 l-8.9 -0.1 2.1 2.3 c1.3 1.3 2.7 3.9 3.2 5.8 1.4 4.7 1.3 161.9 0 169 -0.6 3 -1.9 7.2 -3 9.4 l-1.9 4 2.4 -2.9 c1.3 -1.6 3.4 -5.5 4.7 -8.5z m-577.6 0.9 c1.2 -3 2.5 -6.4 2.8 -7.4 0.4 -1.6 0.7 -1.7 2 -0.6 1.4 1.1 1.6 0.4 1.6 -6.5 0 -4.3 -0.2 -7.6 -0.4 -7.4 -2.4 2.4 -8.6 10.5 -8.6 11.1 0 0.5 0.6 0.8 1.4 0.8 1.2 0 1 1.1 -0.7 6 -1.2 3.3 -2.5 6 -2.8 6 -0.3 0 -1.3 -1.8 -2.2 -4 -1.1 -2.8 -2 -3.8 -3 -3.4 -1.2 0.4 -1.1 1.4 0.7 6 1.8 4.7 2.4 5.4 4.5 5.2 2 -0.2 3 -1.5 4.7 -5.8z m-9.6 -9.4 c0 -0.8 -0.4 -1.7 -0.8 -2 -1.3 -0.8 -3.5 1.1 -2.8 2.3 1 1.6 3.6 1.4 3.6 -0.3z m-2.4 -4.7 c0.3 -0.6 0.2 -1.5 -0.2 -1.9 -1.2 -1.2 -3.8 0.5 -3 1.9 0.9 1.4 2.3 1.4 3.2 0z m-2.3 -6.5 c-0.3 -0.8 -0.9 -1.4 -1.3 -1.4 -1.3 0 -2.2 1.9 -1.5 3 0.9 1.4 3.4 0 2.8 -1.6z m260.7 -84.8 c0 -0.8 -0.4 -1.7 -0.8 -2 -1.3 -0.8 -3.5 1.1 -2.8 2.3 1 1.6 3.6 1.4 3.6 -0.3z m-2.4 -4.7 c0.3 -0.6 0.2 -1.5 -0.2 -1.9 -1.2 -1.2 -3.8 0.5 -3 1.9 0.9 1.4 2.3 1.4 3.2 0z m-2.3 -6.5 c-0.3 -0.8 -0.9 -1.4 -1.3 -1.4 -1.3 0 -2.2 1.9 -1.5 3 0.9 1.4 3.4 0 2.8 -1.6z m-123.3 -20.8 c0 -0.8 -0.4 -1.7 -0.8 -2 -1.3 -0.8 -3.5 1.1 -2.8 2.3 1 1.6 3.6 1.4 3.6 -0.3z m-2.4 -4.7 c0.3 -0.6 0.2 -1.5 -0.2 -1.9 -1.2 -1.2 -3.8 0.5 -3 1.9 0.9 1.4 2.3 1.4 3.2 0z m-2.3 -6.5 c-0.3 -0.8 -0.9 -1.4 -1.3 -1.4 -1.3 0 -2.2 1.9 -1.5 3 0.9 1.4 3.4 0 2.8 -1.6z m398.3 -43.4 c1.2 -3 2.5 -6.4 2.8 -7.4 0.4 -1.6 0.7 -1.7 2 -0.6 1.4 1.1 1.6 0.4 1.6 -6.5 0 -4.3 -0.2 -7.6 -0.4 -7.4 -2.4 2.4 -8.6 10.5 -8.6 11.1 0 0.5 0.6 0.8 1.4 0.8 1.2 0 1 1.1 -0.7 6 -1.2 3.3 -2.5 6 -2.8 6 -0.3 0 -1.3 -1.8 -2.2 -4 -1.1 -2.8 -2 -3.8 -3 -3.4 -1.2 0.4 -1.1 1.4 0.7 6 1.8 4.7 2.4 5.4 4.5 5.2 2 -0.2 3 -1.5 4.7 -5.8z m-9.6 -9.4 c0 -0.8 -0.4 -1.7 -0.8 -2 -1.3 -0.8 -3.5 1.1 -2.8 2.3 1 1.6 3.6 1.4 3.6 -0.3z m-2.4 -4.7 c0.3 -0.6 0.2 -1.5 -0.2 -1.9 -1.2 -1.2 -3.8 0.5 -3 1.9 0.9 1.4 2.3 1.4 3.2 0z m-2.3 -6.5 c-0.3 -0.8 -0.9 -1.4 -1.3 -1.4 -1.3 0 -2.2 1.9 -1.5 3 0.9 1.4 3.4 0 2.8 -1.6z"/>
  <path d="M397.7 1398 c-1.5 -3.8 -1.4 -4.1 0.3 -5 2.7 -1.4 6.3 -1.3 5.6 0.3 -0.2 0.6 -1 2.9 -1.7 5 -0.7 2 -1.5 3.7 -1.9 3.7 -0.4 0 -1.4 -1.8 -2.3 -4z"/>
 </g>
 <g fill="#ffffff">
  <path d="M370.5 1400.4 c-1.1 -0.2 -4.5 -0.9 -7.5 -1.5 -8.1 -1.6 -16.5 -6.5 -24.9 -14.4 -9.1 -8.6 -14.3 -16.1 -19.7 -28.5 -7.4 -16.9 -11.1 -34.2 -12.1 -56.5 -2 -47.5 14.7 -90.9 42.5 -109.8 11.1 -7.5 16.4 -9.1 31.2 -9.2 14.8 0 20 1.4 30.3 8.2 21.8 14.6 35.8 43 40.3 81.8 3.5 29.7 -2.4 64.3 -15.4 90 -4.1 8.2 -8.1 13.6 -16.1 21.8 l-7.6 7.8 -0.5 -6.1 -0.5 -6.1 -4 5.1 c-4.7 6 -5.1 6.7 -3.2 7.2 2.2 0.5 0.3 4.6 -2.9 6 -2.2 1 -2.7 0.9 -3.5 -0.5 -1.2 -2.1 -3.8 -1.1 -3.2 1.2 0.4 1.5 -0.6 2 -6.6 2.9 -6.8 1.2 -12.6 1.4 -16.6 0.6z m19.1 -11.5 c17.7 -8.5 24.5 -36.5 24.3 -99.9 0 -12.4 -0.4 -27.7 -1 -34 -0.5 -6.3 -1.2 -17.3 -1.6 -24.4 -0.5 -10 -0.9 -12.6 -1.7 -11.3 -1 1.2 -1.5 0.4 -2.9 -4.9 -5.9 -22.6 -22.8 -34.9 -37.2 -27.3 -12.6 6.6 -18.5 18.6 -23.8 47.9 -2 11.6 -2.2 15.5 -2.2 52.5 0 32.8 0.3 42 1.7 51 5.2 33.6 12.2 47.6 26.1 52.1 5.3 1.7 12.7 1.1 18.3 -1.7z m5.4 1.7 c0 -0.8 -0.4 -1.7 -0.8 -2 -1.3 -0.8 -3.5 1.1 -2.8 2.3 1 1.6 3.6 1.4 3.6 -0.3z"/>
  <path d="M795.9 1398.9 c-9.8 -1 -17.1 -3.6 -24.7 -8.7 -7.4 -5.1 -12.7 -11 -15.9 -18 -5.8 -12.4 -5.6 -9.2 -6 -94.7 -0.3 -56 -0.7 -79.8 -1.5 -81.9 -1.4 -3.4 -6 -5.6 -11.8 -5.6 -3.6 0 -4 -0.3 -4 -2.4 l0 -2.4 19.3 -0.7 c14.5 -0.5 44.1 -0.2 46.5 0.4 0.1 0.1 0.2 1.2 0.2 2.6 0 2.3 -0.4 2.5 -4.1 2.5 -2.2 0 -4.9 0.5 -6.1 1.1 -4.8 2.6 -4.8 3.2 -4.8 76.6 -0.1 60 -0.3 68.4 -1.5 65.6 -0.9 -2.2 -1.9 -3.1 -2.9 -2.7 -1.2 0.5 -1.1 1.3 0.7 5.7 1.2 2.9 2.4 5.4 2.8 5.7 0.3 0.3 1.1 6.1 1.7 12.9 0.9 11 1.4 13.2 4.4 19 7.2 14.2 21.2 19.3 38.4 14 5.7 -1.8 7.7 -3.1 12.9 -8.2 10.7 -10.7 9.9 -3.9 10.3 -95.2 0.2 -43.4 0 -80.9 -0.3 -83.3 -1 -6.6 -4.9 -10.3 -11.2 -10.9 -2.9 -0.3 -5.4 -1.1 -5.6 -1.8 -1.3 -3.2 0.8 -3.5 21.9 -3.3 20.1 0.3 20.9 0.4 20.9 2.3 0 1.5 -0.8 2.1 -3 2.3 -4.5 0.4 -7.3 2.2 -9.8 6.1 l-2.2 3.6 -0.5 82.5 -0.5 82.5 -2.3 5.5 c-4.9 11.6 -15.4 21.6 -27.4 26.2 -4.3 1.6 -20.5 4 -24.8 3.6 -0.8 0 -4.9 -0.4 -9.1 -0.9z m-16.9 -72.3 c0 -0.8 -0.4 -1.7 -0.8 -2 -1.3 -0.8 -3.5 1.1 -2.8 2.3 1 1.6 3.6 1.4 3.6 -0.3z m-2.4 -4.7 c0.3 -0.6 0.2 -1.5 -0.2 -1.9 -1.2 -1.2 -3.8 0.5 -3 1.9 0.9 1.4 2.3 1.4 3.2 0z m-2.3 -6.5 c-0.3 -0.8 -0.9 -1.4 -1.3 -1.4 -1.3 0 -2.2 1.9 -1.5 3 0.9 1.4 3.4 0 2.8 -1.6z"/>
  <path d="M997.6 1395.8 c-0.8 -1.3 -20.9 -41.3 -44.6 -89 -23.8 -47.8 -43.6 -87 -44.1 -87.4 -0.5 -0.3 -0.9 28.5 -0.9 71.1 0 60.3 -0.2 71.6 -1.4 72.1 -1.2 0.5 -1.2 1.1 0 4.2 0.7 2 1.6 6.3 1.9 9.5 1 8.5 5.8 13.5 14.8 15.2 3.1 0.6 3.8 1.1 3.5 2.9 -0.3 2.1 -0.6 2.1 -23.3 2.1 -22.2 0 -23 -0.1 -23 -2 0 -1.4 1.2 -2.3 5 -3.5 7.1 -2.1 9 -3.5 10.9 -7.4 1.4 -3.1 1.6 -12.2 1.6 -92.8 l0 -89.3 -2.3 -4 c-1.2 -2.2 -3.8 -5 -5.7 -6.2 -4.9 -3.2 -6.1 -4.3 -5.6 -5.2 0.7 -1.1 29.1 -2.2 38.1 -1.4 l7.7 0.6 12.7 25.6 c6.9 14.1 17.3 35.5 23 47.6 16.7 35.2 30.2 62.5 30.9 62.5 0.4 0 0.6 -13.6 0.4 -30.2 -0.8 -96.3 -0.5 -89 -2.6 -93.2 -2.4 -4.7 -6.8 -7.6 -11.7 -7.6 -2.2 0 -3.9 -0.6 -4.2 -1.3 -1.3 -3.5 0.6 -3.7 22.4 -3.5 20.6 0.3 21.4 0.4 21.4 2.3 0 1.6 -0.8 2.1 -3.9 2.3 -5.2 0.4 -8.1 2.5 -10.6 7.7 -2.1 4.4 -2.1 4.6 -2 100.5 0 65.6 -0.3 96.7 -1 98 -1.5 2.7 -5.6 2.6 -7.4 -0.2z m-90.6 -37.2 c0 -0.8 -0.4 -1.7 -0.8 -2 -1.3 -0.8 -3.5 1.1 -2.8 2.3 1 1.6 3.6 1.4 3.6 -0.3z m-2.4 -4.7 c0.3 -0.6 0.2 -1.5 -0.2 -1.9 -1.2 -1.2 -3.8 0.5 -3 1.9 0.9 1.4 2.3 1.4 3.2 0z m-2.3 -6.5 c-0.3 -0.8 -0.9 -1.4 -1.3 -1.4 -1.3 0 -2.2 1.9 -1.5 3 0.9 1.4 3.4 0 2.8 -1.6z m14.3 -139.4 c1.2 -3 2.5 -6.4 2.8 -7.4 0.4 -1.6 0.7 -1.7 2 -0.6 1.4 1.1 1.6 0.4 1.6 -6.5 0 -4.3 -0.2 -7.6 -0.4 -7.4 -2.4 2.4 -8.6 10.5 -8.6 11.1 0 0.5 0.6 0.8 1.4 0.8 1.2 0 1 1.1 -0.7 6 -1.2 3.3 -2.5 6 -2.8 6 -0.3 0 -1.3 -1.8 -2.2 -4 -1.1 -2.8 -2 -3.8 -3 -3.4 -1.2 0.4 -1.1 1.4 0.7 6 1.8 4.7 2.4 5.4 4.5 5.2 2 -0.2 3 -1.5 4.7 -5.8z m-9.6 -9.4 c0 -0.8 -0.4 -1.7 -0.8 -2 -1.3 -0.8 -3.5 1.1 -2.8 2.3 1 1.6 3.6 1.4 3.6 -0.3z m-2.4 -4.7 c0.3 -0.6 0.2 -1.5 -0.2 -1.9 -1.2 -1.2 -3.8 0.5 -3 1.9 0.9 1.4 2.3 1.4 3.2 0z m-2.3 -6.5 c-0.3 -0.8 -0.9 -1.4 -1.3 -1.4 -1.3 0 -2.2 1.9 -1.5 3 0.9 1.4 3.4 0 2.8 -1.6z"/>
  <path d="M192.2 1396.3 c-3.4 -0.3 -4.3 -0.8 -4 -2.1 0.2 -1.2 1.7 -1.9 4.8 -2.2 2.5 -0.3 5.1 -0.9 5.8 -1.3 1.6 -1.1 1.8 -187.1 0.2 -192.9 -1.3 -4.6 -5.2 -7.8 -9.6 -7.8 -3 0 -3.4 -0.3 -3.4 -2.5 l0 -2.5 32.3 0.2 c31.4 0.3 32.2 0.3 32.2 2.3 0 1.7 -0.8 2.1 -5.6 2.5 -6.6 0.6 -9.1 2.4 -11.4 8.4 -1.4 3.6 -1.5 15 -1.3 98.1 l0.3 94 7.4 0.3 c20.9 0.8 37.6 -6.4 43.8 -18.9 3.1 -6.4 11.3 -25.7 11.3 -26.8 0 -0.6 0.5 -1.3 1 -1.6 0.7 -0.4 1 8.7 1 26.4 l0 27.1 -50.2 -0.2 c-27.7 -0.1 -52.2 -0.3 -54.6 -0.5z"/>
  <path d="M451.2 1394.3 c0.3 -2.7 0.6 -2.8 6.7 -3.4 4.6 -0.4 6.8 -1.2 7.8 -2.5 1.1 -1.4 1.3 -19.1 1.3 -97.1 l0 -95.4 -2.5 -2.4 c-2.2 -2.3 -3.6 -2.7 -10.4 -2.9 -2.7 -0.1 -5.1 -3 -3.6 -4.5 1.4 -1.4 39.4 -2 62.5 -1.1 20.2 0.9 22.9 1.4 32.8 6.4 18.2 9.2 27.7 31.6 24.3 57 -2.8 20.6 -11.8 33.1 -29 40.1 l-7.8 3.1 4.6 5 c4.9 5.5 4 3.1 23.1 54.4 11.1 29.6 13.9 35.1 19.7 39.2 2.8 1.8 4.3 3.6 4.1 4.6 -0.3 1.5 -2.1 1.7 -13 2 -14.5 0.3 -17.4 -0.6 -23.9 -7.5 -6 -6.2 -11.9 -19.9 -27.8 -64.7 -3.8 -10.7 -7.6 -20.8 -8.5 -22.4 -2.1 -4.1 -7.4 -8.4 -10 -8 -2.1 0.3 -2.1 0.3 -2.4 46.3 -0.2 37.4 0 46.4 1.1 47.9 1 1.3 3.2 2 7.8 2.5 6 0.6 6.4 0.8 6.4 3.1 l0 2.5 -31.8 0.3 -31.8 0.2 0.3 -2.7z m66.9 -108.9 c7.5 -2.2 15.1 -9.9 16.9 -17.2 1.1 -4.1 1.6 -4.9 2.7 -4 1.6 1.3 1.6 -1.9 0.3 -24.4 -1.5 -25.8 -4.1 -35.1 -11.7 -41.9 -5.2 -4.7 -10 -6.3 -19.3 -6.3 l-7.5 -0.1 -0.3 46.5 c-0.1 25.6 0 47.1 0.3 47.8 0.6 1.8 12 1.5 18.6 -0.4z"/>
  <path d="M595.8 1395.8 c-0.9 -2.4 0.3 -3.7 3.8 -4.4 6.9 -1.3 6.5 5 6.2 -100.7 -0.3 -94.1 -0.3 -95.7 -2.3 -97.6 -1.2 -1.3 -4.2 -2.4 -7.5 -2.8 -4.6 -0.7 -5.5 -1.2 -5.5 -2.8 0 -1.8 0.9 -2.1 9 -2.6 13.7 -1 46.9 -1 56.6 0 22.9 2.5 43.3 14.8 55.2 33.4 8.3 12.9 13.7 26.4 16.9 42.2 2.7 13.7 3 44.6 0.4 58.5 -5.4 29.6 -19.7 53.2 -39.1 64.6 -9 5.3 -25.1 11.1 -34 12.4 -10.8 1.5 -59.2 1.3 -59.7 -0.2z m63.2 -9.5 c15.3 -5.2 24.3 -13.8 29.8 -28.7 5.6 -15 5.7 -15.6 5.7 -62.6 0 -48 -0.4 -52.4 -6.6 -69.6 -8.2 -22.4 -23.3 -34.4 -43.6 -34.4 l-5.3 0 0 99.5 0 99.6 6.3 -0.7 c3.4 -0.3 9.6 -1.8 13.7 -3.1z"/>
 </g>
</svg>