<?xml version="1.0"?><svg version="1.2" baseProfile="tiny-ps" viewBox="0 0 300 300" xmlns="http://www.w3.org/2000/svg" xmlns:xlink="http://www.w3.org/1999/xlink"><title>LordunYour Brand/Organization</title><g><g fill="#fefefe" transform="matrix(.1 0 0 -.1 0 300)"><path d="M0 1500V0h3000v3000H0V1500z"/></g><g fill="#d7d7d7" transform="matrix(.1 0 0 -.1 0 300)"><path d="M0 1500V0h3000v3000H0V1500zm850 292-28-29-13-44-13-44v-310l12-41c7-23 21-53 33-68l20-26h30c17 0 38 4 48 10l19 9 17 43 18 43 5 136 4 135-12 74-13 75-33 33-34 34 27-7c16-3 42-17 60-31l31-24 26-52 25-53 10-64 10-64-9-70-10-69-21-49-21-49-39-34-38-35-36-7-37-7-38 12-37 11-28 27c-15 16-40 53-54 83l-26 55v230l23 49c31 68 65 110 104 129 47 23 50 21 18-11zm-330 11c-8-3-21-12-27-21l-13-16v-538l55 4 55 5 21 19c12 10 28 33 35 49l13 30 1-57v-58l-142 1c-79 0-137 3-130 6l12 5v557l-17 10-18 10h85c47 0 78-3 70-6zm812-3 37-11 25-30 25-30 7-34 6-35-7-37-7-37-31-31c-18-18-39-34-47-37l-15-5 12-14c7-9 33-69 58-135l45-119 17-12 17-13h-72l-21 18-22 17-47 125-47 125-18 3-17 3v-280l23-4c12-2-18-4-68-5h-90l25 7 25 7v558l-25 7-25 7 100 1 100 1 37-10zm415-18 42-22 25-33c32-41 54-104 62-173l7-52-13-67-13-67-31-46-31-46-49-25-49-25-96-4-96-3 18 11 17 11v534l-8 11c-4 7-16 14-27 17s30 5 90 3l110-2 42-22zm303 15-25-13v-481l14-26 14-26 28-11 28-12 30 7 30 6 26 31 25 30-2 241-3 241-25 13-25 13h119l-22-16-22-15v-461l-15-32-15-32-32-19-31-18h-58l-58 1-30 22c-17 12-37 31-44 43l-12 22-5 240-5 239-25 13-25 13h190l-25-13zm482-184 97-198-2 185-2 184-25 13-25 13h119l-22-16-22-15v-559h-8c-4 0-63 113-132 250-69 138-128 250-132 250h-8v-441l11-20c6-11 20-24 32-29l22-9h-130l22 11 21 10 6 22c3 11 6 126 6 254v233l-11 22c-7 12-17 25-23 29l-11 8h121l96-197zm-1302 48v-141h57l26 20 25 20 7 41 7 41-7 54-6 53-17 21-17 21-37 6-38 6v-142zm390-146v-285h18c10 0 38 10 62 23l45 22 20 40 20 40 3 121 4 121-16 61c-9 34-23 74-33 88l-17 27-33 13c-18 8-42 14-53 14h-20v-285z"/></g><g fill="#a1a1a1" transform="matrix(.1 0 0 -.1 0 300)"><path d="M0 1500V0h3000v3000H0V1500zm976 301c65-40 106-122 119-237l7-59-12-65-12-65-31-58-30-58-44-26-44-25-49 4-49 5-35 26-34 27-29 57-28 58-3 101-4 101 16 55 15 54 31 42c17 24 45 51 63 62l32 20h90l31-19zm-454 2-23-5-10-25-9-25 2-257 3-256 31-3 32-3 36 15 37 15 20 46c11 25 22 45 24 45 3 0 5-29 5-65v-65l-152 1c-84 1-145 3-135 6l17 4v548l-22 15-22 16 94-1c52-1 85-4 72-6zm837-11 34-19 19-34 18-34v-100l-20-33-20-32-27-12c-38-17-38-16-21-35 8-10 32-64 53-121s47-114 57-127l19-25h-78l-20 23-21 22-37 100c-39 106-59 145-76 145h-10l3-137 3-137 25-7 25-7h-190l25 7 25 7v548l-25 13-25 13h230l34-18zm376-1c52-24 89-64 116-126l22-50 5-73 5-73-18-67-18-66-46-46-46-46-41-12-41-12-84 1c-46 0-78 3-71 6l12 5v559l-22 9-23 9h105l105 1 40-19zm318 9-23-9v-500l24-28 24-28 42 1 42 1 27 27 26 26 3 227c2 125 0 238-3 251l-6 23-22 9-22 9h58l57 1-20-20-20-20v-465l-20-33-20-33-35-15c-19-8-51-14-72-14h-37l-40 20-41 19-15 23-15 23-5 245-5 244-25 13-25 13 95-1h95l-22-9zm442-107c32-65 74-152 94-193l36-75 3 160c1 88 0 170-3 183l-6 23-22 9-22 9h65l65 1-25-13-25-13-3-282-2-282h-20l-121 243c-66 133-123 244-125 246-2 3-3-101-2-229l3-234 25-13 25-13h-140l25 13 25 13 3 263 2 264-16 19-17 18h120l58-117zM852 1795l-22-16-17-57-17-57v-290l17-57 17-57 22-16c13-8 32-15 44-15h21l25 20 25 19 14 48 14 48v155l-1 155-12 41c-7 23-21 53-33 68l-20 26h-55l-22-15zm385-1-7-7v-270l38 6 37 6 18 22 17 21v167l-22 25-23 25-25 6-26 6-7-7zm388-7c-3-7-4-134-3-282l3-270 25 3c14 2 39 11 57 19l32 15 22 46 22 45v272l-12 41c-6 23-21 54-33 69l-21 27-33 14c-41 17-53 18-59 1z"/></g><g fill="#666767" transform="matrix(.1 0 0 -.1 0 300)"><path d="M0 1500V0h3000v3000H0V1500zm986 297c38-25 71-72 91-129l16-43 4-75 5-76-16-64c-9-35-28-84-42-107l-25-43-37-25-37-25h-96l-27 14c-36 19-65 52-91 103l-21 41-11 71-11 71 10 64c6 35 20 86 32 113l21 50 39 38 38 37 34 8c44 10 86 2 124-23zm-466 0-25-13-3-278-2-279 42 7 43 7 25 18 25 18 22 44 22 44v-72l1-73-157 1H355l23 9 22 9v531l-20 20-20 20h185l-25-13zm835-1 35-15 20-33 20-33v-110l-20-33-20-32-25-12-26-12 7-15c4-9 26-68 51-131 24-63 51-122 60-132l16-18h-83l-19 19c-16 16-35 60-88 206l-19 50-17 3-17 3v-259l28-10 27-10-95-1h-95l23 9 22 9v548l-22 11-23 11h113l113 1 34-14zm366 2c19-6 49-22 66-36l33-24 27-56 28-57v-221l-30-59-30-59-49-31-49-30-111-3-111-2 18 10 17 11v546l-22 11-23 11h101l101 1 34-12zm332 0-23-11v-478l15-28c8-16 22-31 30-35 26-9 74-7 97 5l20 11 14 33 14 34v436l-8 11c-4 6-16 16-27 22l-20 11h130l-22-11-21-10-6-22c-3-11-6-123-6-247v-226l-21-27c-11-14-34-33-49-41l-29-15h-96l-35 19-35 18-20 34-20 34-3 236-4 237-21 10-22 11h190l-22-11zm482-180 93-193 1 168 1 168-25 24-24 25h62l62-1-20-11c-11-6-23-16-27-22l-8-11v-556l-10 6c-6 4-67 118-135 253l-124 247v-232l-1-232 28-15 27-15h-140l28 15 27 15v519l-20 20-20 20h131l94-192zM858 1800l-16-10-19-48-18-47v-350l18-46 17-46 25-13 26-14 26 10 27 9 18 31 18 31 10 104 10 104-9 100-9 100-15 37-15 36-20 11c-25 13-52 14-74 1zm374-142 3-133 30 2 30 2 23 27 24 27-4 83-3 82-19 21-19 21h-68l3-132zm388-143v-275h57l34 23 34 23 15 29 15 30 3 135 4 135-12 53-11 52-33 35-33 35h-73v-275z"/></g><g fill="#353535" transform="matrix(.1 0 0 -.1 0 300)"><path d="M0 1500V0h3000v3000H0V1500zm967 311 42-19 29-41 30-41 17-65 18-64-5-89-5-88-28-62-28-63-33-29-34-29-37-10-38-10-39 9-39 8-38 38-39 38-22 56-21 55-1 100-1 100 18 52c10 28 31 69 46 91l29 39 43 21c54 27 82 27 136 3zm-427-6c0-3-11-10-25-15l-25-10v-540h86l23 16 23 17 24 51 23 51v-77l1-78-157 1c-87 1-150 3-140 6l17 4v559h-15c-8 0-15 5-15 10v10h90c50 0 90-2 90-5zm818-9c15-8 35-23 45-34l19-21 9-40 9-41-9-41-9-41-28-29c-15-16-34-29-42-29h-14l5-12c4-7 22-53 42-103 55-138 67-165 77-165 4 0 8-7 8-15v-15h-69l-25 23-25 22-44 120-44 119-12 4-11 4v-260l23-6 22-7-20-9c-11-5-53-9-92-9l-73-1v30h40v550h-40v20h231l27-14zm414-21 43-31 30-59 30-59v-231l-26-50c-32-60-51-78-110-104l-45-20-81-7-81-7-19 7-18 7 18 10 17 10v549h-40v22l119-4 119-3 44-30zm298 26c0-5-9-11-20-14l-20-5v-461l10-27c6-15 18-33 28-40 33-26 100-13 129 25l12 16 1 243v244l-20 5c-11 3-20 9-20 14v9h125l-22-18-22-17-3-235-3-235-17-31-17-31-35-17-34-16h-107l-32 20c-18 10-40 31-50 47l-18 27-3 243-3 243h-19c-10 0-22 5-25 10l-6 10h191v-9zm463-178 92-188 3 70c2 39 0 116-3 173l-7 103-24 9c-39 15-28 20 42 20h67l-27-25-26-24v-551h-21l-122 247-122 248-3-220-3-220 26-20c14-12 25-24 25-28v-7h-130v10c0 6 4 10 9 10s17 7 25 16l16 15v508l-22 21-22 20h135l92-187zM847 1780l-25-29-12-68-12-69 4-134 5-135 14-39 14-39 27-20 27-20 32 13 31 13 16 36 16 36 4 156 4 156-12 57-11 56-26 30-25 30h-46l-25-30zm393-120v-130h57l18 20 18 20 5 55c2 30 1 70-2 90l-7 36-20 20-19 19h-50v-130zm390-146v-276l32 6c44 9 74 31 95 69l18 32v320l-22 47-21 47-31 15c-16 9-39 16-51 16h-20v-276z"/></g><g fill="#010201" transform="matrix(.1 0 0 -.1 0 300)"><path d="M0 1500V0h3000v3000H0V1500zm963 316c43-18 81-61 106-117l21-47 9-63 8-64-8-68-8-67-22-50-21-50-43-39-43-40-37-7-37-7-39 12c-21 6-51 22-67 36l-29 24-29 63-29 63v230l28 62 29 61 26 25c15 14 41 33 57 41l30 16h33c18 0 47-6 65-14zm-445-6h22v-20h-38l-6-16c-3-9-6-132-6-275v-259h38c20 0 48 6 61 13l25 12 27 55 28 55 1-82v-83H360v9c0 5 7 11 15 15l15 5v540l-22 13-23 13 40 6c22 4 56 5 75 3s45-4 58-4zm854-18 36-22 16-40c9-22 16-55 16-73v-32l-19-42-19-42-32-16-31-16 10-13c6-7 29-62 52-122l41-109 19-21 19-20-7-7c-3-4-22-7-40-7h-35l-27 28-27 27-38 105c-21 58-44 112-52 120l-14 14v-264h40v-31l-92 3-93 3 2 10c1 6 11 11 23 13l20 3v539l-27 11-28 11 20 9 20 9 106-3 106-3 35-22zm329 17 52-11 47-47 47-47 18-55 19-54-1-85v-85l-22-57-22-56-39-36-39-35-52-15-53-16h-156v10c0 6 7 13 15 16l15 6v538l-26 10-25 10 6 10 6 10h79c44 0 102-5 131-11zm374 1 6-10-26-10-26-10 3-246 3-246 28-24 28-24h61l29 29 29 29v482l-27 12-28 11 34 9c18 5 47 8 64 6l30-3 4-11 4-11-21-6-20-5v-463l-14-34-14-33-27-18c-15-10-43-20-63-24l-37-6-44 8-45 8-24 23c-13 12-29 31-35 42l-12 20-5 240-5 240-22 3c-23 3-29 13-16 25 3 4 46 7 94 7h88l6-10zm455-172 89-183v163l1 162-25 10c-40 15-30 20 40 20h65v-9c0-5-9-11-20-14l-20-5-2-283-3-282-12-4-12-4-125 248-125 248v-212c-1-116 2-219 5-228 4-9 18-21 31-26l24-9-6-10-6-10h-129v9c0 5 11 16 25 25l25 16v497l-20 25-19 25 6 7c3 3 33 6 65 6h59l89-182zM863 1795l-21-14-17-43-18-43-5-125-5-126 12-70 12-71 19-31 20-32h69l20 25 20 26 10 50 11 50v254l-14 60-14 60-27 22c-31 27-43 28-72 8zm377-135v-130h50l19 19 20 20 7 36 6 35-7 55-6 55-26 20c-14 11-34 20-44 20h-19v-130zm390-144v-276h13c6 0 30 9 53 19l41 18 19 39 19 39-1 155v155l-16 35c-9 19-27 45-40 57l-24 23-32 6-32 7v-277z"/></g></g></svg>