<?xml version="1.0" encoding="UTF-8"?>
<!DOCTYPE svg PUBLIC "-//W3C//DTD SVG 1.1//EN" "http://www.w3.org/Graphics/SVG/1.1/DTD/svg11.dtd">
<svg xmlns="http://www.w3.org/2000/svg" version="1.1" width="1179px" height="2556px" style="shape-rendering:geometricPrecision; text-rendering:geometricPrecision; image-rendering:optimizeQuality; fill-rule:evenodd; clip-rule:evenodd" xmlns:xlink="http://www.w3.org/1999/xlink">
<g><path style="opacity:1" fill="#000000" d="M -0.5,-0.5 C 392.5,-0.5 785.5,-0.5 1178.5,-0.5C 1178.5,851.5 1178.5,1703.5 1178.5,2555.5C 785.5,2555.5 392.5,2555.5 -0.5,2555.5C -0.5,1703.5 -0.5,851.5 -0.5,-0.5 Z"/></g>
<g><path style="opacity:1" fill="#7a7a7a" d="M 316.5,1197.5 C 305.496,1196.19 294.496,1196.19 283.5,1197.5C 283.918,1196.78 284.584,1196.28 285.5,1196C 294.5,1195.33 303.5,1195.33 312.5,1196C 314.058,1196.21 315.391,1196.71 316.5,1197.5 Z"/></g>
<g><path style="opacity:1" fill="#f7f7f7" d="M 316.5,1197.5 C 318.214,1198.74 320.214,1199.41 322.5,1199.5C 324.395,1201.24 326.728,1202.24 329.5,1202.5C 330.899,1203.89 332.566,1204.89 334.5,1205.5C 335.899,1206.89 337.566,1207.89 339.5,1208.5C 343.791,1211.12 347.457,1214.46 350.5,1218.5C 351.957,1220.63 352.957,1222.96 353.5,1225.5C 354.959,1225.43 356.292,1225.77 357.5,1226.5C 358.906,1226.97 359.573,1227.97 359.5,1229.5C 360.08,1231.75 361.413,1233.42 363.5,1234.5C 364.338,1234.84 364.672,1235.51 364.5,1236.5C 364.427,1238.03 365.094,1239.03 366.5,1239.5C 367.737,1240.96 368.737,1242.63 369.5,1244.5C 369.755,1246.97 370.755,1248.97 372.5,1250.5C 373.441,1252.05 374.107,1253.72 374.5,1255.5C 374.755,1257.97 375.755,1259.97 377.5,1261.5C 377.5,1261.83 377.5,1262.17 377.5,1262.5C 377.41,1265.15 378.076,1267.49 379.5,1269.5C 379.723,1273.16 380.723,1276.5 382.5,1279.5C 383.609,1283.83 384.609,1288.17 385.5,1292.5C 385.444,1297.73 386.111,1302.73 387.5,1307.5C 387.5,1308.17 387.5,1308.83 387.5,1309.5C 388.416,1321.47 388.749,1333.47 388.5,1345.5C 387.555,1350.41 387.221,1355.41 387.5,1360.5C 386.883,1360.39 386.383,1360.06 386,1359.5C 385.501,1363.82 385.334,1368.15 385.5,1372.5C 383.926,1374.1 383.259,1376.1 383.5,1378.5C 382.216,1386.26 380.549,1393.92 378.5,1401.5C 376.416,1404.05 375.083,1407.05 374.5,1410.5C 373.677,1412.99 372.677,1415.32 371.5,1417.5C 369.935,1419.51 368.935,1421.84 368.5,1424.5C 366.025,1425.69 365.025,1427.69 365.5,1430.5C 361.836,1435.83 358.17,1441.16 354.5,1446.5C 353.761,1446.37 353.094,1446.54 352.5,1447C 350.332,1450 347.999,1452.83 345.5,1455.5C 343.5,1456.83 341.833,1458.5 340.5,1460.5C 338.326,1460.75 336.659,1461.75 335.5,1463.5C 333.973,1463.43 332.973,1464.09 332.5,1465.5C 330.326,1465.75 328.659,1466.75 327.5,1468.5C 326.391,1468.56 325.391,1468.89 324.5,1469.5C 319.243,1470.72 314.243,1472.39 309.5,1474.5C 309.167,1474.5 308.833,1474.5 308.5,1474.5C 300.2,1475.37 291.867,1475.7 283.5,1475.5C 281.343,1474.59 279.01,1473.93 276.5,1473.5C 273.061,1471.8 269.395,1470.46 265.5,1469.5C 261.345,1468.26 257.678,1466.26 254.5,1463.5C 253.415,1461.41 251.749,1460.08 249.5,1459.5C 248.738,1457.74 247.404,1456.74 245.5,1456.5C 243.833,1454.17 241.833,1452.17 239.5,1450.5C 239.262,1448.6 238.262,1447.26 236.5,1446.5C 230.996,1438.83 225.996,1430.83 221.5,1422.5C 220.917,1419.05 219.584,1416.05 217.5,1413.5C 216.099,1410.3 215.099,1406.96 214.5,1403.5C 214.235,1398.1 212.902,1393.1 210.5,1388.5C 210.5,1388.17 210.5,1387.83 210.5,1387.5C 210.59,1384.85 209.924,1382.51 208.5,1380.5C 207.659,1378.62 207.325,1376.62 207.5,1374.5C 207.125,1368.99 206.458,1363.66 205.5,1358.5C 205.5,1357.83 205.5,1357.17 205.5,1356.5C 205.229,1340.8 205.563,1325.14 206.5,1309.5C 206.5,1309.17 206.5,1308.83 206.5,1308.5C 207.222,1308.08 207.722,1307.42 208,1306.5C 208.498,1303.18 208.665,1299.85 208.5,1296.5C 210.143,1291.02 211.477,1285.35 212.5,1279.5C 213.924,1277.49 214.59,1275.15 214.5,1272.5C 214.5,1272.17 214.5,1271.83 214.5,1271.5C 215.674,1270.49 216.34,1269.15 216.5,1267.5C 218.642,1264.2 219.975,1260.53 220.5,1256.5C 220.833,1255.83 221.167,1255.17 221.5,1254.5C 223.755,1252.47 225.088,1249.8 225.5,1246.5C 228.451,1245.19 229.784,1242.86 229.5,1239.5C 230.906,1239.03 231.573,1238.03 231.5,1236.5C 233.587,1235.42 234.92,1233.75 235.5,1231.5C 235.328,1230.51 235.662,1229.84 236.5,1229.5C 241.472,1224.19 246.472,1218.86 251.5,1213.5C 255.177,1212.74 257.844,1210.74 259.5,1207.5C 260.853,1205.26 262.853,1203.93 265.5,1203.5C 268.486,1203.1 271.152,1202.1 273.5,1200.5C 276.452,1198.59 279.786,1197.59 283.5,1197.5C 294.496,1196.19 305.496,1196.19 316.5,1197.5 Z"/></g>
<g><path style="opacity:1" fill="#666666" d="M 322.5,1199.5 C 325.272,1199.76 327.605,1200.76 329.5,1202.5C 326.728,1202.24 324.395,1201.24 322.5,1199.5 Z"/></g>
<g><path style="opacity:1" fill="#606060" d="M 388.5,1202.5 C 418.331,1201.34 448.331,1201.17 478.5,1202C 481.365,1202.18 484.031,1202.68 486.5,1203.5C 453.846,1202.57 421.18,1202.23 388.5,1202.5 Z"/></g>
<g><path style="opacity:1" fill="#494949" d="M 872.5,1202.5 C 881.16,1201.83 889.994,1201.5 899,1201.5C 908.193,1201.5 917.026,1202.17 925.5,1203.5C 925.167,1203.5 924.833,1203.5 924.5,1203.5C 907.341,1202.5 890.008,1202.17 872.5,1202.5 Z"/></g>
<g><path style="opacity:1" fill="#606060" d="M 993.5,1202.5 C 975.164,1202.33 956.83,1202.5 938.5,1203C 937.419,1204.71 937.752,1206.21 939.5,1207.5C 938.504,1207.59 937.671,1207.25 937,1206.5C 936.506,1204.87 936.34,1203.2 936.5,1201.5C 955.674,1201.17 974.674,1201.5 993.5,1202.5 Z"/></g>
<g><path style="opacity:1" fill="#919191" d="M 73.5,1202.5 C 73.5,1202.83 73.5,1203.17 73.5,1203.5C 66.8333,1203.5 60.1667,1203.5 53.5,1203.5C 53.5,1204.83 53.5,1206.17 53.5,1207.5C 55.7354,1207.21 57.7354,1207.54 59.5,1208.5C 57.1667,1208.5 54.8333,1208.5 52.5,1208.5C 52.5,1206.5 52.5,1204.5 52.5,1202.5C 59.5,1202.5 66.5,1202.5 73.5,1202.5 Z"/></g>
<g><path style="opacity:1" fill="#aaaaaa" d="M 73.5,1203.5 C 73.5,1203.17 73.5,1202.83 73.5,1202.5C 93.8333,1202.5 114.167,1202.5 134.5,1202.5C 134.5,1204.5 134.5,1206.5 134.5,1208.5C 130.5,1208.5 126.5,1208.5 122.5,1208.5C 125.962,1207.52 129.629,1207.19 133.5,1207.5C 133.5,1206.17 133.5,1204.83 133.5,1203.5C 113.5,1203.5 93.5,1203.5 73.5,1203.5 Z"/></g>
<g><path style="opacity:1" fill="#6b6b6b" d="M 273.5,1200.5 C 271.152,1202.1 268.486,1203.1 265.5,1203.5C 267.617,1201.35 270.284,1200.35 273.5,1200.5 Z"/></g>
<g><path style="opacity:1" fill="#414141" d="M 329.5,1202.5 C 331.989,1202.24 333.656,1203.24 334.5,1205.5C 332.566,1204.89 330.899,1203.89 329.5,1202.5 Z"/></g>
<g><path style="opacity:1" fill="#f7f7f7" d="M 388.5,1202.5 C 421.18,1202.23 453.846,1202.57 486.5,1203.5C 487.167,1203.5 487.833,1203.5 488.5,1203.5C 492.751,1205.47 497.418,1206.8 502.5,1207.5C 510.567,1210.57 517.567,1215.23 523.5,1221.5C 523.427,1223.03 524.094,1224.03 525.5,1224.5C 525.738,1226.4 526.738,1227.74 528.5,1228.5C 527.916,1231.29 528.916,1232.95 531.5,1233.5C 531.755,1235.97 532.755,1237.97 534.5,1239.5C 535.331,1242.66 536.331,1245.66 537.5,1248.5C 538.309,1260.48 538.642,1272.48 538.5,1284.5C 537.475,1287.97 536.808,1291.64 536.5,1295.5C 535.168,1299.16 533.835,1302.83 532.5,1306.5C 531.094,1306.97 530.427,1307.97 530.5,1309.5C 529.094,1309.97 528.427,1310.97 528.5,1312.5C 526.75,1313.66 525.75,1315.33 525.5,1317.5C 523.167,1319.17 521.167,1321.17 519.5,1323.5C 515.202,1325.81 511.202,1328.48 507.5,1331.5C 504.053,1332.08 501.053,1333.42 498.5,1335.5C 497.167,1335.83 495.833,1336.17 494.5,1336.5C 493.503,1336.47 492.836,1336.97 492.5,1338C 492.748,1339.75 493.748,1340.58 495.5,1340.5C 496.073,1343.41 497.739,1345.41 500.5,1346.5C 504.211,1350.59 506.877,1355.26 508.5,1360.5C 508.345,1363.72 509.345,1366.38 511.5,1368.5C 511.833,1369.83 512.167,1371.17 512.5,1372.5C 512.166,1375.49 513.166,1377.82 515.5,1379.5C 515.5,1380.17 515.5,1380.83 515.5,1381.5C 515.66,1383.15 516.326,1384.49 517.5,1385.5C 519.399,1389.3 520.732,1393.3 521.5,1397.5C 521.755,1399.97 522.755,1401.97 524.5,1403.5C 524.5,1403.83 524.5,1404.17 524.5,1404.5C 526.59,1412.11 529.257,1419.44 532.5,1426.5C 532.259,1428.9 532.926,1430.9 534.5,1432.5C 535.537,1433.93 536.204,1435.6 536.5,1437.5C 537.06,1439.8 537.56,1442.13 538,1444.5C 538.708,1445.38 539.542,1446.05 540.5,1446.5C 541.167,1448.17 541.833,1449.83 542.5,1451.5C 542.588,1455.59 544.588,1458.26 548.5,1459.5C 549.5,1459.83 550.167,1460.5 550.5,1461.5C 550.973,1462.91 551.973,1463.57 553.5,1463.5C 556.987,1464.39 558.32,1466.72 557.5,1470.5C 546.833,1470.5 536.167,1470.5 525.5,1470.5C 525.047,1469.54 524.381,1468.71 523.5,1468C 520.588,1467.72 517.921,1466.89 515.5,1465.5C 514.833,1465.17 514.167,1464.83 513.5,1464.5C 511.833,1462.17 509.833,1460.17 507.5,1458.5C 503.829,1454.16 501.496,1449.16 500.5,1443.5C 500.538,1440.82 499.871,1438.32 498.5,1436C 496.911,1433 495.245,1430.16 493.5,1427.5C 492.637,1425.58 491.971,1423.58 491.5,1421.5C 491.043,1415.12 489.043,1409.45 485.5,1404.5C 484.5,1402.5 483.5,1400.5 482.5,1398.5C 482.59,1395.85 481.924,1393.51 480.5,1391.5C 478.903,1389.15 477.903,1386.49 477.5,1383.5C 475.456,1375.96 473.122,1368.63 470.5,1361.5C 469.396,1358.19 467.729,1355.19 465.5,1352.5C 464.431,1350.03 463.098,1347.7 461.5,1345.5C 461.141,1343.63 460.141,1342.13 458.5,1341C 455.304,1340.2 452.304,1340.36 449.5,1341.5C 449.333,1380.5 449.5,1419.5 450,1458.5C 450.236,1460.12 451.069,1461.12 452.5,1461.5C 452.611,1462.12 452.944,1462.62 453.5,1463C 458.684,1463.17 463.684,1463.67 468.5,1464.5C 468.5,1466.17 468.5,1467.83 468.5,1469.5C 463.968,1469.18 459.634,1469.52 455.5,1470.5C 433.164,1470.67 410.831,1470.5 388.5,1470C 387.193,1468.06 387.193,1466.22 388.5,1464.5C 393.637,1463.93 398.637,1463.27 403.5,1462.5C 404.795,1461.51 406.128,1460.51 407.5,1459.5C 408.117,1459.39 408.617,1459.06 409,1458.5C 409.832,1377 409.666,1295.67 408.5,1214.5C 407.167,1213.5 405.833,1212.5 404.5,1211.5C 404.119,1210.07 403.119,1209.24 401.5,1209C 397.179,1208.5 392.846,1208.33 388.5,1208.5C 387.167,1206.5 387.167,1204.5 388.5,1202.5 Z"/></g>
<g><path style="opacity:1" fill="#f8f8f8" d="M 647.5,1202.5 C 651.215,1202.42 654.881,1202.76 658.5,1203.5C 660.515,1204.92 662.848,1205.59 665.5,1205.5C 665.833,1205.5 666.167,1205.5 666.5,1205.5C 668.102,1207.07 670.102,1207.74 672.5,1207.5C 674.033,1209.25 676.033,1210.25 678.5,1210.5C 686.205,1214.2 693.538,1218.7 700.5,1224C 702.293,1226.39 704.293,1228.55 706.5,1230.5C 707.08,1232.75 708.413,1234.42 710.5,1235.5C 711.167,1235.5 711.5,1235.83 711.5,1236.5C 712.08,1238.75 713.413,1240.42 715.5,1241.5C 717.262,1242.26 718.262,1243.6 718.5,1245.5C 717.916,1248.29 718.916,1249.95 721.5,1250.5C 721.216,1253.86 722.549,1256.19 725.5,1257.5C 725.755,1259.97 726.755,1261.97 728.5,1263.5C 730.226,1267.01 731.559,1270.68 732.5,1274.5C 732.69,1277.86 733.69,1280.86 735.5,1283.5C 735.826,1289.84 737.159,1295.84 739.5,1301.5C 740.458,1303.3 741.125,1305.3 741.5,1307.5C 741.693,1324.85 741.36,1342.18 740.5,1359.5C 740.02,1365.19 739.354,1370.86 738.5,1376.5C 737.275,1377.15 736.608,1378.32 736.5,1380C 735.969,1382.82 735.636,1385.65 735.5,1388.5C 733.46,1395.58 731.127,1402.58 728.5,1409.5C 726.755,1411.03 725.755,1413.03 725.5,1415.5C 723.178,1416.8 721.845,1418.8 721.5,1421.5C 719.93,1425.08 717.93,1428.41 715.5,1431.5C 713.413,1432.58 712.08,1434.25 711.5,1436.5C 708.5,1440.17 705.167,1443.5 701.5,1446.5C 698.802,1446.84 696.802,1448.18 695.5,1450.5C 692.953,1451.93 690.619,1453.6 688.5,1455.5C 684.055,1456.22 680.388,1458.22 677.5,1461.5C 676.833,1461.5 676.167,1461.5 675.5,1461.5C 672.135,1461.95 668.802,1462.62 665.5,1463.5C 663.97,1463.64 662.97,1464.31 662.5,1465.5C 661.508,1465.33 660.842,1465.66 660.5,1466.5C 658.435,1466.52 656.435,1466.85 654.5,1467.5C 648.168,1467.94 641.835,1468.44 635.5,1469C 634.263,1469.23 633.263,1469.73 632.5,1470.5C 612.5,1470.5 592.5,1470.5 572.5,1470.5C 571.833,1470.5 571.5,1470.17 571.5,1469.5C 571.297,1467.61 571.963,1466.11 573.5,1465C 575.852,1464.76 577.852,1463.93 579.5,1462.5C 580.71,1462.07 581.71,1461.4 582.5,1460.5C 583.338,1460.16 583.672,1459.49 583.5,1458.5C 584.167,1417.83 584.5,1377 584.5,1336C 584.5,1294.83 583.833,1253.99 582.5,1213.5C 582.5,1212.83 582.167,1212.5 581.5,1212.5C 580.167,1211.83 579.167,1210.83 578.5,1209.5C 577.319,1207.93 575.653,1207.1 573.5,1207C 570.854,1206.5 568.187,1206.34 565.5,1206.5C 565.33,1205.18 565.663,1204.01 566.5,1203C 593.498,1202.5 620.498,1202.33 647.5,1202.5 Z"/></g>
<g><path style="opacity:1" fill="#f6f6f6" d="M 826.5,1202.5 C 827.167,1202.5 827.5,1202.83 827.5,1203.5C 827.5,1204.83 827.5,1206.17 827.5,1207.5C 824.15,1207.33 820.817,1207.5 817.5,1208C 816.263,1208.23 815.263,1208.73 814.5,1209.5C 812.5,1209.5 811.5,1210.5 811.5,1212.5C 810.542,1212.95 809.708,1213.62 809,1214.5C 808.333,1285.5 808.333,1356.5 809,1427.5C 809.21,1429.06 809.71,1430.39 810.5,1431.5C 810.627,1436.23 812.293,1440.23 815.5,1443.5C 815.427,1445.03 816.094,1446.03 817.5,1446.5C 817.427,1448.03 818.094,1449.03 819.5,1449.5C 820.167,1452.17 821.833,1453.83 824.5,1454.5C 826.001,1455.75 827.668,1456.75 829.5,1457.5C 830.687,1459.98 832.687,1460.98 835.5,1460.5C 836.568,1461.43 837.901,1461.77 839.5,1461.5C 845.987,1462.65 852.654,1462.82 859.5,1462C 860.056,1461.62 860.389,1461.12 860.5,1460.5C 860.833,1460.5 861.167,1460.5 861.5,1460.5C 864.647,1460.26 867.647,1459.43 870.5,1458C 871.942,1457.62 872.942,1456.79 873.5,1455.5C 879.219,1452.11 883.552,1447.45 886.5,1441.5C 888.975,1440.31 889.975,1438.31 889.5,1435.5C 891.074,1433.9 891.741,1431.9 891.5,1429.5C 891.833,1426.83 892.167,1424.17 892.5,1421.5C 893.268,1420.74 893.768,1419.74 894,1418.5C 894.667,1353.83 894.667,1289.17 894,1224.5C 893.722,1223.58 893.222,1222.92 892.5,1222.5C 892.552,1216.57 889.885,1212.57 884.5,1210.5C 883.22,1209.07 881.553,1208.4 879.5,1208.5C 877.393,1207.53 875.059,1207.2 872.5,1207.5C 872.5,1206.17 872.5,1204.83 872.5,1203.5C 889.833,1203.5 907.167,1203.5 924.5,1203.5C 924.833,1203.5 925.167,1203.5 925.5,1203.5C 925.5,1205.17 925.5,1206.83 925.5,1208.5C 921.818,1208.33 918.152,1208.5 914.5,1209C 912.859,1210.13 911.859,1211.63 911.5,1213.5C 910.833,1213.5 910.5,1213.83 910.5,1214.5C 908.069,1216.05 906.736,1218.38 906.5,1221.5C 906.5,1222.83 906.5,1224.17 906.5,1225.5C 905.83,1291.74 905.163,1358.07 904.5,1424.5C 903.51,1428.39 902.51,1432.39 901.5,1436.5C 901.371,1438.22 901.038,1439.88 900.5,1441.5C 898.14,1444.22 896.14,1447.22 894.5,1450.5C 892.196,1453.14 889.862,1455.81 887.5,1458.5C 885.223,1459.45 883.223,1460.78 881.5,1462.5C 877.032,1464.65 872.698,1466.98 868.5,1469.5C 867.391,1469.56 866.391,1469.89 865.5,1470.5C 862.161,1470.89 858.827,1471.39 855.5,1472C 854.944,1472.38 854.611,1472.88 854.5,1473.5C 836.953,1475.97 819.953,1474.31 803.5,1468.5C 801.434,1466.8 799.1,1465.47 796.5,1464.5C 792.951,1463.28 789.951,1461.28 787.5,1458.5C 785.167,1455.5 782.5,1452.83 779.5,1450.5C 779.167,1449.5 778.5,1448.83 777.5,1448.5C 777.245,1446.03 776.245,1444.03 774.5,1442.5C 769.764,1433.48 766.931,1423.81 766,1413.5C 765.667,1348.17 765.333,1282.83 765,1217.5C 764.722,1216.58 764.222,1215.92 763.5,1215.5C 763.33,1212.8 761.997,1211.13 759.5,1210.5C 757.898,1208.93 755.898,1208.26 753.5,1208.5C 750.713,1207.52 747.713,1207.19 744.5,1207.5C 744.5,1206.17 744.5,1204.83 744.5,1203.5C 771.801,1202.53 799.135,1202.19 826.5,1202.5 Z"/></g>
<g><path style="opacity:1" fill="#c9c9c9" d="M 872.5,1202.5 C 890.008,1202.17 907.341,1202.5 924.5,1203.5C 907.167,1203.5 889.833,1203.5 872.5,1203.5C 872.5,1204.83 872.5,1206.17 872.5,1207.5C 875.059,1207.2 877.393,1207.53 879.5,1208.5C 877.167,1208.5 874.833,1208.5 872.5,1208.5C 869.833,1206.5 869.833,1204.5 872.5,1202.5 Z"/></g>
<g><path style="opacity:1" fill="#f6f6f6" d="M 993.5,1202.5 C 995.738,1203.85 997.071,1205.85 997.5,1208.5C 997.755,1210.97 998.755,1212.97 1000.5,1214.5C 1001.67,1215.51 1002.34,1216.85 1002.5,1218.5C 1002.53,1221.85 1003.86,1224.52 1006.5,1226.5C 1006.43,1228.03 1007.09,1229.03 1008.5,1229.5C 1008.66,1231.15 1009.33,1232.49 1010.5,1233.5C 1011.06,1236.94 1012.39,1239.94 1014.5,1242.5C 1016.81,1247.13 1019.15,1251.79 1021.5,1256.5C 1021.12,1258.7 1021.79,1260.36 1023.5,1261.5C 1023.02,1264.31 1024.02,1266.31 1026.5,1267.5C 1026.75,1269.97 1027.75,1271.97 1029.5,1273.5C 1033.2,1280.91 1036.87,1288.24 1040.5,1295.5C 1040.17,1298.49 1041.17,1300.82 1043.5,1302.5C 1044.11,1303.39 1044.44,1304.39 1044.5,1305.5C 1044.43,1307.03 1045.09,1308.03 1046.5,1308.5C 1047.74,1310.65 1048.74,1312.98 1049.5,1315.5C 1049.43,1317.03 1050.09,1318.03 1051.5,1318.5C 1051.6,1323.71 1053.6,1328.04 1057.5,1331.5C 1060.09,1336.35 1062.42,1341.35 1064.5,1346.5C 1064.75,1348.97 1065.75,1350.97 1067.5,1352.5C 1067.62,1356.75 1069.29,1360.08 1072.5,1362.5C 1075.01,1366.19 1077.01,1370.19 1078.5,1374.5C 1078.56,1375.04 1078.89,1375.38 1079.5,1375.5C 1079.83,1367.83 1080.17,1360.17 1080.5,1352.5C 1079.98,1309 1079.31,1265.67 1078.5,1222.5C 1077.83,1222.5 1077.5,1222.17 1077.5,1221.5C 1077.25,1219.03 1076.25,1217.03 1074.5,1215.5C 1071.87,1212.18 1068.54,1209.85 1064.5,1208.5C 1062.39,1207.53 1060.06,1207.2 1057.5,1207.5C 1057.5,1206.17 1057.5,1204.83 1057.5,1203.5C 1075.5,1203.5 1093.5,1203.5 1111.5,1203.5C 1111.5,1204.83 1111.5,1206.17 1111.5,1207.5C 1105.51,1206.61 1100.51,1208.28 1096.5,1212.5C 1096.17,1213.17 1095.83,1213.83 1095.5,1214.5C 1094.62,1214.37 1093.96,1214.7 1093.5,1215.5C 1092.57,1217.8 1091.73,1220.13 1091,1222.5C 1090.5,1303.5 1090.33,1384.5 1090.5,1465.5C 1090.5,1467.17 1090.5,1468.83 1090.5,1470.5C 1087.9,1471.27 1085.24,1471.6 1082.5,1471.5C 1080.15,1469.14 1078.15,1466.47 1076.5,1463.5C 1076.25,1461.03 1075.25,1459.03 1073.5,1457.5C 1072.83,1455.83 1072.17,1454.17 1071.5,1452.5C 1071.57,1450.97 1070.91,1449.97 1069.5,1449.5C 1068.54,1446.26 1067.2,1443.26 1065.5,1440.5C 1065.57,1438.97 1064.91,1437.97 1063.5,1437.5C 1062.99,1434.91 1061.99,1432.58 1060.5,1430.5C 1060.57,1428.97 1059.91,1427.97 1058.5,1427.5C 1057.17,1424.5 1055.84,1421.5 1054.5,1418.5C 1054.28,1415.45 1052.94,1413.12 1050.5,1411.5C 1050.67,1410.51 1050.34,1409.84 1049.5,1409.5C 1049.07,1406.84 1048.07,1404.51 1046.5,1402.5C 1046.57,1400.97 1045.91,1399.97 1044.5,1399.5C 1040.65,1391.95 1036.98,1384.29 1033.5,1376.5C 1033.57,1374.97 1032.91,1373.97 1031.5,1373.5C 1029.89,1370.62 1028.56,1367.62 1027.5,1364.5C 1027.57,1362.97 1026.91,1361.97 1025.5,1361.5C 1025.44,1360.39 1025.11,1359.39 1024.5,1358.5C 1024.28,1355.45 1022.94,1353.12 1020.5,1351.5C 1020.5,1351.17 1020.5,1350.83 1020.5,1350.5C 1020.57,1348.97 1019.91,1347.97 1018.5,1347.5C 1011.08,1332.45 1003.75,1317.45 996.5,1302.5C 996.092,1298.14 994.425,1294.48 991.5,1291.5C 991.34,1289.85 990.674,1288.51 989.5,1287.5C 989.573,1285.97 988.906,1284.97 987.5,1284.5C 987.065,1281.84 986.065,1279.51 984.5,1277.5C 983.094,1277.03 982.427,1276.03 982.5,1274.5C 982.245,1272.03 981.245,1270.03 979.5,1268.5C 977.108,1262.72 974.441,1257.05 971.5,1251.5C 971.573,1249.97 970.906,1248.97 969.5,1248.5C 969.167,1247.83 968.833,1247.17 968.5,1246.5C 968.5,1246.17 968.5,1245.83 968.5,1245.5C 968.179,1243.95 967.179,1243.29 965.5,1243.5C 965.333,1311.5 965.5,1379.5 966,1447.5C 966.2,1449.32 967.034,1450.65 968.5,1451.5C 968.5,1451.83 968.5,1452.17 968.5,1452.5C 968.427,1454.03 969.094,1455.03 970.5,1455.5C 970.414,1456.5 970.748,1457.33 971.5,1458C 973.405,1459.42 975.405,1460.59 977.5,1461.5C 977.611,1462.12 977.944,1462.62 978.5,1463C 981.207,1463.4 983.873,1463.9 986.5,1464.5C 990.071,1464.41 991.238,1466.07 990,1469.5C 989.329,1470.25 988.496,1470.59 987.5,1470.5C 969.167,1470.5 950.833,1470.5 932.5,1470.5C 932.5,1468.83 932.5,1467.17 932.5,1465.5C 935.487,1465 938.487,1464.5 941.5,1464C 943.584,1463.3 945.251,1462.14 946.5,1460.5C 948.117,1459.96 949.784,1459.63 951.5,1459.5C 951.629,1457.78 951.962,1456.12 952.5,1454.5C 952.517,1452.44 952.85,1450.44 953.5,1448.5C 954.222,1448.08 954.722,1447.42 955,1446.5C 955.667,1372.17 955.667,1297.83 955,1223.5C 954.617,1222.94 954.117,1222.61 953.5,1222.5C 953.672,1221.51 953.338,1220.84 952.5,1220.5C 951.941,1218.32 951.274,1216.15 950.5,1214C 949.644,1212.41 948.311,1211.57 946.5,1211.5C 944.584,1209.44 942.251,1208.1 939.5,1207.5C 937.752,1206.21 937.419,1204.71 938.5,1203C 956.83,1202.5 975.164,1202.33 993.5,1202.5 Z"/></g>
<g><path style="opacity:1" fill="#a8a8a8" d="M 1111.5,1203.5 C 1093.5,1203.5 1075.5,1203.5 1057.5,1203.5C 1057.5,1204.83 1057.5,1206.17 1057.5,1207.5C 1060.06,1207.2 1062.39,1207.53 1064.5,1208.5C 1061.81,1208.66 1059.15,1208.5 1056.5,1208C 1055.17,1206.33 1055.17,1204.67 1056.5,1203C 1075,1202.17 1093.34,1202.34 1111.5,1203.5 Z"/></g>
<g><path style="opacity:1" fill="#f8f8f8" d="M 73.5,1203.5 C 93.5,1203.5 113.5,1203.5 133.5,1203.5C 133.5,1204.83 133.5,1206.17 133.5,1207.5C 129.629,1207.19 125.962,1207.52 122.5,1208.5C 122.167,1208.5 121.833,1208.5 121.5,1208.5C 119.251,1209.08 117.585,1210.41 116.5,1212.5C 114.75,1213.66 113.75,1215.33 113.5,1217.5C 112.326,1218.51 111.66,1219.85 111.5,1221.5C 110.501,1302.33 110.167,1383.33 110.5,1464.5C 119.506,1464.67 128.506,1464.5 137.5,1464C 141.465,1463.89 145.132,1463.06 148.5,1461.5C 149.5,1460.83 150.5,1460.17 151.5,1459.5C 155.358,1459.23 158.691,1457.9 161.5,1455.5C 163.46,1453.84 165.46,1452.18 167.5,1450.5C 171.217,1449.08 173.55,1446.41 174.5,1442.5C 176.408,1441.51 177.408,1439.85 177.5,1437.5C 178.11,1436.61 178.443,1435.61 178.5,1434.5C 180.588,1432.66 181.921,1430.33 182.5,1427.5C 182.259,1425.1 182.926,1423.1 184.5,1421.5C 185.871,1419.06 186.871,1416.4 187.5,1413.5C 187.557,1412.39 187.89,1411.39 188.5,1410.5C 190.047,1409.23 191.047,1407.57 191.5,1405.5C 192.769,1426.35 192.769,1447.35 191.5,1468.5C 146.495,1468.83 101.495,1468.5 56.5,1467.5C 59.7848,1466.68 63.1182,1466.18 66.5,1466C 67.056,1465.62 67.3893,1465.12 67.5,1464.5C 68.5832,1464.46 69.5832,1464.13 70.5,1463.5C 71.6666,1382.5 71.8333,1301.5 71,1220.5C 70.9005,1218.35 70.0672,1216.68 68.5,1215.5C 68.6716,1214.51 68.3382,1213.84 67.5,1213.5C 66.5702,1209.91 64.2368,1208.24 60.5,1208.5C 60.1667,1208.5 59.8333,1208.5 59.5,1208.5C 57.7354,1207.54 55.7354,1207.21 53.5,1207.5C 53.5,1206.17 53.5,1204.83 53.5,1203.5C 60.1667,1203.5 66.8333,1203.5 73.5,1203.5 Z"/></g>
<g><path style="opacity:1" fill="#010101" d="M 307.5,1204.5 C 308.659,1206.25 310.326,1207.25 312.5,1207.5C 313.492,1207.33 314.158,1207.66 314.5,1208.5C 316.167,1210.83 318.167,1212.83 320.5,1214.5C 323.839,1217.83 326.172,1221.83 327.5,1226.5C 327.843,1231.45 329.51,1235.79 332.5,1239.5C 332.5,1239.83 332.5,1240.17 332.5,1240.5C 332.723,1244.16 333.723,1247.5 335.5,1250.5C 336.002,1257.18 336.669,1263.85 337.5,1270.5C 337.337,1277.06 338.004,1283.39 339.5,1289.5C 340.498,1312.33 340.831,1335.33 340.5,1358.5C 340.351,1368.84 340.018,1379.17 339.5,1389.5C 338.732,1390.26 338.232,1391.26 338,1392.5C 337.501,1396.49 337.334,1400.49 337.5,1404.5C 337.552,1406.9 337.219,1409.24 336.5,1411.5C 335.475,1414.97 334.808,1418.64 334.5,1422.5C 332.408,1430.89 329.408,1438.89 325.5,1446.5C 323.336,1448.82 321.669,1451.49 320.5,1454.5C 317.865,1455.81 315.531,1457.48 313.5,1459.5C 310.603,1460.13 307.936,1461.13 305.5,1462.5C 298.465,1462.67 291.465,1462.34 284.5,1461.5C 283.448,1461.65 282.448,1461.48 281.5,1461C 278.669,1459 276.003,1456.83 273.5,1454.5C 272.92,1452.25 271.587,1450.58 269.5,1449.5C 269.34,1447.85 268.674,1446.51 267.5,1445.5C 267.204,1443.6 266.537,1441.93 265.5,1440.5C 264.833,1439.5 264.167,1438.5 263.5,1437.5C 263.741,1435.1 263.074,1433.1 261.5,1431.5C 260.366,1428.63 259.7,1425.63 259.5,1422.5C 259.029,1416.77 257.695,1411.43 255.5,1406.5C 255.628,1402.12 255.295,1397.79 254.5,1393.5C 254.089,1388.66 253.422,1383.99 252.5,1379.5C 252.5,1378.83 252.5,1378.17 252.5,1377.5C 252.5,1349.83 252.5,1322.17 252.5,1294.5C 252.837,1287.12 253.504,1279.78 254.5,1272.5C 254.46,1269.12 254.793,1265.79 255.5,1262.5C 256.525,1259.03 257.192,1255.36 257.5,1251.5C 258.924,1249.49 259.59,1247.15 259.5,1244.5C 260.15,1242.56 260.483,1240.56 260.5,1238.5C 261.871,1236.06 262.871,1233.4 263.5,1230.5C 263.961,1228.45 264.628,1226.45 265.5,1224.5C 267.708,1222.51 269.375,1220.18 270.5,1217.5C 274.298,1214.2 277.964,1210.7 281.5,1207C 284.025,1206.58 286.025,1205.41 287.5,1203.5C 294.247,1202.06 300.914,1202.4 307.5,1204.5 Z"/></g>
<g><path style="opacity:1" fill="#666666" d="M 658.5,1203.5 C 661.152,1203.41 663.485,1204.08 665.5,1205.5C 662.848,1205.59 660.515,1204.92 658.5,1203.5 Z"/></g>
<g><path style="opacity:1" fill="#989898" d="M 307.5,1204.5 C 310.285,1203.92 311.952,1204.92 312.5,1207.5C 310.326,1207.25 308.659,1206.25 307.5,1204.5 Z"/></g>
<g><path style="opacity:1" fill="#999999" d="M 488.5,1203.5 C 493.6,1203.71 498.266,1205.04 502.5,1207.5C 497.418,1206.8 492.751,1205.47 488.5,1203.5 Z"/></g>
<g><path style="opacity:1" fill="#a2a2a2" d="M 647.5,1202.5 C 620.498,1202.33 593.498,1202.5 566.5,1203C 565.663,1204.01 565.33,1205.18 565.5,1206.5C 568.187,1206.34 570.854,1206.5 573.5,1207C 575.653,1207.1 577.319,1207.93 578.5,1209.5C 574.154,1209.67 569.821,1209.5 565.5,1209C 562.833,1206.67 562.833,1204.33 565.5,1202C 593.003,1201.17 620.336,1201.34 647.5,1202.5 Z"/></g>
<g><path style="opacity:1" fill="#5b5b5b" d="M 666.5,1205.5 C 668.898,1205.26 670.898,1205.93 672.5,1207.5C 670.102,1207.74 668.102,1207.07 666.5,1205.5 Z"/></g>
<g><path style="opacity:1" fill="#565656" d="M 334.5,1205.5 C 336.989,1205.24 338.656,1206.24 339.5,1208.5C 337.566,1207.89 335.899,1206.89 334.5,1205.5 Z"/></g>
<g><path style="opacity:1" fill="#959595" d="M 826.5,1202.5 C 799.135,1202.19 771.801,1202.53 744.5,1203.5C 744.5,1204.83 744.5,1206.17 744.5,1207.5C 747.713,1207.19 750.713,1207.52 753.5,1208.5C 750.5,1208.5 747.5,1208.5 744.5,1208.5C 743.532,1206.39 743.198,1204.06 743.5,1201.5C 771.338,1201.17 799.005,1201.5 826.5,1202.5 Z"/></g>
<g><path style="opacity:1" fill="#898989" d="M 827.5,1203.5 C 828.451,1204.92 828.784,1206.59 828.5,1208.5C 823.797,1208.44 819.13,1208.77 814.5,1209.5C 815.263,1208.73 816.263,1208.23 817.5,1208C 820.817,1207.5 824.15,1207.33 827.5,1207.5C 827.5,1206.17 827.5,1204.83 827.5,1203.5 Z"/></g>
<g><path style="opacity:1" fill="#525252" d="M 287.5,1203.5 C 286.025,1205.41 284.025,1206.58 281.5,1207C 277.964,1210.7 274.298,1214.2 270.5,1217.5C 274.369,1210.63 280.035,1205.96 287.5,1203.5 Z"/></g>
<g><path style="opacity:1" fill="#a7a7a7" d="M 314.5,1208.5 C 317.5,1209.5 319.5,1211.5 320.5,1214.5C 318.167,1212.83 316.167,1210.83 314.5,1208.5 Z"/></g>
<g><path style="opacity:1" fill="#868686" d="M 388.5,1208.5 C 392.846,1208.33 397.179,1208.5 401.5,1209C 403.119,1209.24 404.119,1210.07 404.5,1211.5C 399.153,1210.06 393.819,1209.06 388.5,1208.5 Z"/></g>
<g><path style="opacity:1" fill="#595959" d="M 744.5,1208.5 C 747.5,1208.5 750.5,1208.5 753.5,1208.5C 755.898,1208.26 757.898,1208.93 759.5,1210.5C 754.346,1209.99 749.346,1209.33 744.5,1208.5 Z"/></g>
<g><path style="opacity:1" fill="#303030" d="M 925.5,1203.5 C 926.461,1205.26 926.795,1207.26 926.5,1209.5C 920.81,1208.67 915.81,1210.01 911.5,1213.5C 911.859,1211.63 912.859,1210.13 914.5,1209C 918.152,1208.5 921.818,1208.33 925.5,1208.5C 925.5,1206.83 925.5,1205.17 925.5,1203.5 Z"/></g>
<g><path style="opacity:1" fill="#a2a2a2" d="M 60.5,1208.5 C 64.2368,1208.24 66.5702,1209.91 67.5,1213.5C 65.4,1211.38 63.0667,1209.72 60.5,1208.5 Z"/></g>
<g><path style="opacity:1" fill="#848484" d="M 672.5,1207.5 C 674.967,1207.75 676.967,1208.75 678.5,1210.5C 676.033,1210.25 674.033,1209.25 672.5,1207.5 Z"/></g>
<g><path style="opacity:1" fill="#2f2f2f" d="M 872.5,1208.5 C 874.833,1208.5 877.167,1208.5 879.5,1208.5C 881.553,1208.4 883.22,1209.07 884.5,1210.5C 881.15,1210.67 877.817,1210.5 874.5,1210C 873.584,1209.72 872.918,1209.22 872.5,1208.5 Z"/></g>
<g><path style="opacity:1" fill="#b5b5b5" d="M 259.5,1207.5 C 257.844,1210.74 255.177,1212.74 251.5,1213.5C 253.443,1210.53 256.109,1208.53 259.5,1207.5 Z"/></g>
<g><path style="opacity:1" fill="#9b9b9b" d="M 640.5,1209.5 C 643.228,1209.17 645.562,1209.84 647.5,1211.5C 646.167,1211.5 644.833,1211.5 643.5,1211.5C 642.5,1210.83 641.5,1210.17 640.5,1209.5 Z"/></g>
<g><path style="opacity:1" fill="#848484" d="M 814.5,1209.5 C 813.833,1210.83 812.833,1211.83 811.5,1212.5C 811.5,1210.5 812.5,1209.5 814.5,1209.5 Z"/></g>
<g><path style="opacity:1" fill="#444444" d="M 1111.5,1207.5 C 1106.62,1208.97 1101.62,1210.63 1096.5,1212.5C 1100.51,1208.28 1105.51,1206.61 1111.5,1207.5 Z"/></g>
<g><path style="opacity:1" fill="#636363" d="M 121.5,1208.5 C 120.415,1210.59 118.749,1211.92 116.5,1212.5C 117.585,1210.41 119.251,1209.08 121.5,1208.5 Z"/></g>
<g><path style="opacity:1" fill="#010101" d="M 468.5,1211.5 C 471.598,1211.76 474.598,1212.42 477.5,1213.5C 477.973,1214.91 478.973,1215.57 480.5,1215.5C 483.851,1217.85 486.518,1220.85 488.5,1224.5C 488.427,1226.03 489.094,1227.03 490.5,1227.5C 491.537,1228.93 492.204,1230.6 492.5,1232.5C 493.129,1235.4 494.129,1238.06 495.5,1240.5C 495.5,1240.83 495.5,1241.17 495.5,1241.5C 495.198,1245.79 495.864,1249.79 497.5,1253.5C 497.5,1266.83 497.5,1280.17 497.5,1293.5C 495.763,1298.23 494.763,1303.23 494.5,1308.5C 493.069,1309.78 492.402,1311.45 492.5,1313.5C 491.094,1313.97 490.427,1314.97 490.5,1316.5C 488.937,1317.94 487.604,1319.61 486.5,1321.5C 483.527,1323.15 480.86,1325.15 478.5,1327.5C 477.508,1327.33 476.842,1327.66 476.5,1328.5C 472.24,1329.59 467.906,1330.25 463.5,1330.5C 459.167,1330.5 454.833,1330.5 450.5,1330.5C 450.5,1290.83 450.5,1251.17 450.5,1211.5C 456.5,1211.5 462.5,1211.5 468.5,1211.5 Z"/></g>
<g><path style="opacity:1" fill="#010101" d="M 643.5,1211.5 C 644.833,1211.5 646.167,1211.5 647.5,1211.5C 649.701,1212.57 652.035,1213.23 654.5,1213.5C 655.287,1215.1 656.62,1215.77 658.5,1215.5C 659.514,1216.67 660.847,1217.34 662.5,1217.5C 663.585,1219.59 665.251,1220.92 667.5,1221.5C 668.833,1223.5 670.5,1225.17 672.5,1226.5C 675.797,1229.74 678.63,1233.4 681,1237.5C 682.454,1240.07 683.62,1242.74 684.5,1245.5C 684.427,1247.03 685.094,1248.03 686.5,1248.5C 687.566,1250.7 688.233,1253.03 688.5,1255.5C 689.256,1259.77 690.589,1263.77 692.5,1267.5C 692.5,1267.83 692.5,1268.17 692.5,1268.5C 692.335,1271.52 692.502,1274.52 693,1277.5C 693.278,1278.42 693.778,1279.08 694.5,1279.5C 694.444,1284.73 695.111,1289.73 696.5,1294.5C 696.5,1299.5 696.5,1304.5 696.5,1309.5C 696.5,1337.5 696.5,1365.5 696.5,1393.5C 695.03,1402.01 693.03,1410.34 690.5,1418.5C 688.759,1420.39 687.759,1422.73 687.5,1425.5C 685.755,1427.03 684.755,1429.03 684.5,1431.5C 682.782,1433.22 681.449,1435.22 680.5,1437.5C 676.833,1441.83 672.833,1445.83 668.5,1449.5C 666.973,1449.43 665.973,1450.09 665.5,1451.5C 663.181,1451.99 661.181,1452.99 659.5,1454.5C 656.843,1454.93 654.509,1455.93 652.5,1457.5C 649.284,1457.35 646.617,1458.35 644.5,1460.5C 643.5,1460.5 642.5,1460.5 641.5,1460.5C 636.463,1460.41 631.463,1460.75 626.5,1461.5C 626.333,1378.5 626.5,1295.5 627,1212.5C 632.407,1211.53 637.907,1211.19 643.5,1211.5 Z"/></g>
<g><path style="opacity:1" fill="#b7b7b7" d="M 946.5,1211.5 C 948.311,1211.57 949.644,1212.41 950.5,1214C 951.274,1216.15 951.941,1218.32 952.5,1220.5C 950.773,1217.4 948.773,1214.4 946.5,1211.5 Z"/></g>
<g><path style="opacity:1" fill="#1c1c1c" d="M 468.5,1211.5 C 462.5,1211.5 456.5,1211.5 450.5,1211.5C 450.5,1251.17 450.5,1290.83 450.5,1330.5C 454.833,1330.5 459.167,1330.5 463.5,1330.5C 459.03,1331.49 454.363,1331.82 449.5,1331.5C 449.5,1290.83 449.5,1250.17 449.5,1209.5C 456.255,1208.88 462.588,1209.54 468.5,1211.5 Z"/></g>
<g><path style="opacity:1" fill="#505050" d="M 759.5,1210.5 C 761.997,1211.13 763.33,1212.8 763.5,1215.5C 761.937,1214.06 760.604,1212.39 759.5,1210.5 Z"/></g>
<g><path style="opacity:1" fill="#8d8d8d" d="M 997.5,1208.5 C 999.245,1210.03 1000.25,1212.03 1000.5,1214.5C 998.755,1212.97 997.755,1210.97 997.5,1208.5 Z"/></g>
<g><path style="opacity:1" fill="#8f8f8f" d="M 477.5,1213.5 C 479.027,1213.43 480.027,1214.09 480.5,1215.5C 478.973,1215.57 477.973,1214.91 477.5,1213.5 Z"/></g>
<g><path style="opacity:1" fill="#818181" d="M 654.5,1213.5 C 656.153,1213.66 657.486,1214.33 658.5,1215.5C 656.62,1215.77 655.287,1215.1 654.5,1213.5 Z"/></g>
<g><path style="opacity:1" fill="#717171" d="M 910.5,1214.5 C 909.528,1217.13 908.195,1219.46 906.5,1221.5C 906.736,1218.38 908.069,1216.05 910.5,1214.5 Z"/></g>
<g><path style="opacity:1" fill="#959595" d="M 662.5,1217.5 C 664.749,1218.08 666.415,1219.41 667.5,1221.5C 665.251,1220.92 663.585,1219.59 662.5,1217.5 Z"/></g>
<g><path style="opacity:1" fill="#464646" d="M 1074.5,1215.5 C 1076.25,1217.03 1077.25,1219.03 1077.5,1221.5C 1075.75,1219.97 1074.75,1217.97 1074.5,1215.5 Z"/></g>
<g><path style="opacity:1" fill="#8c8c8c" d="M 251.5,1213.5 C 246.472,1218.86 241.472,1224.19 236.5,1229.5C 240.118,1222.88 245.118,1217.55 251.5,1213.5 Z"/></g>
<g><path style="opacity:1" fill="#a5a5a5" d="M 667.5,1221.5 C 670.167,1222.17 671.833,1223.83 672.5,1226.5C 670.5,1225.17 668.833,1223.5 667.5,1221.5 Z"/></g>
<g><path style="opacity:1" fill="#7a7a7a" d="M 523.5,1221.5 C 524.906,1221.97 525.573,1222.97 525.5,1224.5C 524.094,1224.03 523.427,1223.03 523.5,1221.5 Z"/></g>
<g><path style="opacity:1" fill="#9e9e9e" d="M 1002.5,1218.5 C 1004.77,1220.61 1006.1,1223.28 1006.5,1226.5C 1003.86,1224.52 1002.53,1221.85 1002.5,1218.5 Z"/></g>
<g><path style="opacity:1" fill="#b9b9b9" d="M 350.5,1218.5 C 353.573,1220.57 355.906,1223.24 357.5,1226.5C 356.292,1225.77 354.959,1225.43 353.5,1225.5C 352.957,1222.96 351.957,1220.63 350.5,1218.5 Z"/></g>
<g><path style="opacity:1" fill="#6d6d6d" d="M 488.5,1224.5 C 489.906,1224.97 490.573,1225.97 490.5,1227.5C 489.094,1227.03 488.427,1226.03 488.5,1224.5 Z"/></g>
<g><path style="opacity:1" fill="#888888" d="M 525.5,1224.5 C 527.262,1225.26 528.262,1226.6 528.5,1228.5C 526.738,1227.74 525.738,1226.4 525.5,1224.5 Z"/></g>
<g><path style="opacity:1" fill="#272727" d="M 113.5,1217.5 C 112.846,1287.65 112.18,1357.65 111.5,1427.5C 111.5,1358.83 111.5,1290.17 111.5,1221.5C 111.66,1219.85 112.326,1218.51 113.5,1217.5 Z"/></g>
<g><path style="opacity:1" fill="#656565" d="M 1006.5,1226.5 C 1007.91,1226.97 1008.57,1227.97 1008.5,1229.5C 1007.09,1229.03 1006.43,1228.03 1006.5,1226.5 Z"/></g>
<g><path style="opacity:1" fill="#989898" d="M 706.5,1230.5 C 708.587,1231.58 709.92,1233.25 710.5,1235.5C 708.413,1234.42 707.08,1232.75 706.5,1230.5 Z"/></g>
<g><path style="opacity:1" fill="#bcbcbc" d="M 953.5,1222.5 C 954.117,1222.61 954.617,1222.94 955,1223.5C 955.667,1297.83 955.667,1372.17 955,1446.5C 954.722,1447.42 954.222,1448.08 953.5,1448.5C 953.5,1373.17 953.5,1297.83 953.5,1222.5 Z"/></g>
<g><path style="opacity:1" fill="#989898" d="M 263.5,1230.5 C 262.871,1233.4 261.871,1236.06 260.5,1238.5C 260.345,1235.28 261.345,1232.62 263.5,1230.5 Z"/></g>
<g><path style="opacity:1" fill="#aeaeae" d="M 528.5,1228.5 C 530.25,1229.66 531.25,1231.33 531.5,1233.5C 528.916,1232.95 527.916,1231.29 528.5,1228.5 Z"/></g>
<g><path style="opacity:1" fill="#575757" d="M 327.5,1226.5 C 328.117,1226.61 328.617,1226.94 329,1227.5C 330.484,1231.45 331.65,1235.45 332.5,1239.5C 329.51,1235.79 327.843,1231.45 327.5,1226.5 Z"/></g>
<g><path style="opacity:1" fill="#8c8c8c" d="M 359.5,1229.5 C 361.587,1230.58 362.92,1232.25 363.5,1234.5C 361.413,1233.42 360.08,1231.75 359.5,1229.5 Z"/></g>
<g><path style="opacity:1" fill="#a6a6a6" d="M 492.5,1232.5 C 494.693,1234.52 495.693,1237.19 495.5,1240.5C 494.129,1238.06 493.129,1235.4 492.5,1232.5 Z"/></g>
<g><path style="opacity:1" fill="#888888" d="M 235.5,1231.5 C 234.92,1233.75 233.587,1235.42 231.5,1236.5C 232.08,1234.25 233.413,1232.58 235.5,1231.5 Z"/></g>
<g><path style="opacity:1" fill="#a1a1a1" d="M 711.5,1236.5 C 713.587,1237.58 714.92,1239.25 715.5,1241.5C 713.413,1240.42 712.08,1238.75 711.5,1236.5 Z"/></g>
<g><path style="opacity:1" fill="#6e6e6e" d="M 231.5,1236.5 C 231.573,1238.03 230.906,1239.03 229.5,1239.5C 229.427,1237.97 230.094,1236.97 231.5,1236.5 Z"/></g>
<g><path style="opacity:1" fill="#838383" d="M 364.5,1236.5 C 365.906,1236.97 366.573,1237.97 366.5,1239.5C 365.094,1239.03 364.427,1238.03 364.5,1236.5 Z"/></g>
<g><path style="opacity:1" fill="#747474" d="M 531.5,1233.5 C 533.245,1235.03 534.245,1237.03 534.5,1239.5C 532.755,1237.97 531.755,1235.97 531.5,1233.5 Z"/></g>
<g><path style="opacity:1" fill="#505050" d="M 1010.5,1233.5 C 1012.57,1235.98 1013.9,1238.98 1014.5,1242.5C 1012.39,1239.94 1011.06,1236.94 1010.5,1233.5 Z"/></g>
<g><path style="opacity:1" fill="#9c9c9c" d="M 229.5,1239.5 C 229.784,1242.86 228.451,1245.19 225.5,1246.5C 226.079,1243.67 227.412,1241.34 229.5,1239.5 Z"/></g>
<g><path style="opacity:1" fill="#7c7c7c" d="M 332.5,1240.5 C 334.605,1243.41 335.605,1246.74 335.5,1250.5C 333.723,1247.5 332.723,1244.16 332.5,1240.5 Z"/></g>
<g><path style="opacity:1" fill="#797979" d="M 684.5,1245.5 C 685.906,1245.97 686.573,1246.97 686.5,1248.5C 685.094,1248.03 684.427,1247.03 684.5,1245.5 Z"/></g>
<g><path style="opacity:1" fill="#6f6f6f" d="M 369.5,1244.5 C 371.245,1246.03 372.245,1248.03 372.5,1250.5C 370.755,1248.97 369.755,1246.97 369.5,1244.5 Z"/></g>
<g><path style="opacity:1" fill="#aaaaaa" d="M 718.5,1245.5 C 720.25,1246.66 721.25,1248.33 721.5,1250.5C 718.916,1249.95 717.916,1248.29 718.5,1245.5 Z"/></g>
<g><path style="opacity:1" fill="#5e5e5e" d="M 259.5,1244.5 C 259.59,1247.15 258.924,1249.49 257.5,1251.5C 257.41,1248.85 258.076,1246.51 259.5,1244.5 Z"/></g>
<g><path style="opacity:1" fill="#707070" d="M 969.5,1248.5 C 970.906,1248.97 971.573,1249.97 971.5,1251.5C 970.094,1251.03 969.427,1250.03 969.5,1248.5 Z"/></g>
<g><path style="opacity:1" fill="#1a1a1a" d="M 1095.5,1214.5 C 1094.48,1217.57 1093.32,1220.57 1092,1223.5C 1091.83,1304.33 1091.33,1385 1090.5,1465.5C 1090.33,1384.5 1090.5,1303.5 1091,1222.5C 1091.73,1220.13 1092.57,1217.8 1093.5,1215.5C 1093.96,1214.7 1094.62,1214.37 1095.5,1214.5 Z"/></g>
<g><path style="opacity:1" fill="#888888" d="M 225.5,1246.5 C 225.088,1249.8 223.755,1252.47 221.5,1254.5C 222.279,1251.46 223.613,1248.79 225.5,1246.5 Z"/></g>
<g><path style="opacity:1" fill="#8b8b8b" d="M 582.5,1213.5 C 583.833,1253.99 584.5,1294.83 584.5,1336C 584.5,1377 584.167,1417.83 583.5,1458.5C 583.828,1376.79 583.494,1295.13 582.5,1213.5 Z"/></g>
<g><path style="opacity:1" fill="#818181" d="M 495.5,1241.5 C 497.136,1245.21 497.802,1249.21 497.5,1253.5C 495.864,1249.79 495.198,1245.79 495.5,1241.5 Z"/></g>
<g><path style="opacity:1" fill="#a3a3a3" d="M 721.5,1250.5 C 723.588,1252.34 724.921,1254.67 725.5,1257.5C 722.549,1256.19 721.216,1253.86 721.5,1250.5 Z"/></g>
<g><path style="opacity:1" fill="#878787" d="M 257.5,1251.5 C 257.192,1255.36 256.525,1259.03 255.5,1262.5C 255.116,1258.51 255.783,1254.84 257.5,1251.5 Z"/></g>
<g><path style="opacity:1" fill="#555555" d="M 374.5,1255.5 C 376.245,1257.03 377.245,1259.03 377.5,1261.5C 375.755,1259.97 374.755,1257.97 374.5,1255.5 Z"/></g>
<g><path style="opacity:1" fill="#585858" d="M 688.5,1255.5 C 690.806,1259.08 692.139,1263.08 692.5,1267.5C 690.589,1263.77 689.256,1259.77 688.5,1255.5 Z"/></g>
<g><path style="opacity:1" fill="#8d8d8d" d="M 1021.5,1256.5 C 1023.21,1257.64 1023.88,1259.3 1023.5,1261.5C 1021.79,1260.36 1021.12,1258.7 1021.5,1256.5 Z"/></g>
<g><path style="opacity:1" fill="#818181" d="M 725.5,1257.5 C 727.245,1259.03 728.245,1261.03 728.5,1263.5C 726.755,1261.97 725.755,1259.97 725.5,1257.5 Z"/></g>
<g><path style="opacity:1" fill="#929292" d="M 220.5,1256.5 C 219.975,1260.53 218.642,1264.2 216.5,1267.5C 216.667,1263.33 218,1259.66 220.5,1256.5 Z"/></g>
<g><path style="opacity:1" fill="#afafaf" d="M 537.5,1248.5 C 539.035,1255.26 539.702,1262.26 539.5,1269.5C 539.499,1274.68 539.166,1279.68 538.5,1284.5C 538.642,1272.48 538.309,1260.48 537.5,1248.5 Z"/></g>
<g><path style="opacity:1" fill="#767676" d="M 377.5,1262.5 C 378.924,1264.51 379.59,1266.85 379.5,1269.5C 378.076,1267.49 377.41,1265.15 377.5,1262.5 Z"/></g>
<g><path style="opacity:1" fill="#aaaaaa" d="M 1023.5,1261.5 C 1025.25,1263.03 1026.25,1265.03 1026.5,1267.5C 1024.02,1266.31 1023.02,1264.31 1023.5,1261.5 Z"/></g>
<g><path style="opacity:1" fill="#636363" d="M 216.5,1267.5 C 216.34,1269.15 215.674,1270.49 214.5,1271.5C 214.229,1269.62 214.896,1268.29 216.5,1267.5 Z"/></g>
<g><path style="opacity:1" fill="#a3a3a3" d="M 335.5,1250.5 C 336.222,1250.92 336.722,1251.58 337,1252.5C 338.164,1261.14 338.997,1269.81 339.5,1278.5C 338.833,1275.83 338.167,1273.17 337.5,1270.5C 336.669,1263.85 336.002,1257.18 335.5,1250.5 Z"/></g>
<g><path style="opacity:1" fill="#7c7c7c" d="M 379.5,1269.5 C 381.277,1272.5 382.277,1275.84 382.5,1279.5C 380.723,1276.5 379.723,1273.16 379.5,1269.5 Z"/></g>
<g><path style="opacity:1" fill="#848484" d="M 1026.5,1267.5 C 1028.25,1269.03 1029.25,1271.03 1029.5,1273.5C 1027.75,1271.97 1026.75,1269.97 1026.5,1267.5 Z"/></g>
<g><path style="opacity:1" fill="#444444" d="M 979.5,1268.5 C 981.245,1270.03 982.245,1272.03 982.5,1274.5C 980.755,1272.97 979.755,1270.97 979.5,1268.5 Z"/></g>
<g><path style="opacity:1" fill="#8b8b8b" d="M 214.5,1272.5 C 214.59,1275.15 213.924,1277.49 212.5,1279.5C 212.41,1276.85 213.076,1274.51 214.5,1272.5 Z"/></g>
<g><path style="opacity:1" fill="#989898" d="M 254.5,1272.5 C 253.504,1279.78 252.837,1287.12 252.5,1294.5C 252.167,1294.5 251.833,1294.5 251.5,1294.5C 251.502,1288.98 251.835,1283.48 252.5,1278C 252.547,1275.7 253.213,1273.87 254.5,1272.5 Z"/></g>
<g><path style="opacity:1" fill="#b3b3b3" d="M 68.5,1215.5 C 70.0672,1216.68 70.9005,1218.35 71,1220.5C 71.8333,1301.5 71.6666,1382.5 70.5,1463.5C 69.5832,1464.13 68.5832,1464.46 67.5,1464.5C 67.7828,1463.71 68.2828,1463.04 69,1462.5C 69.8276,1380.13 69.661,1297.79 68.5,1215.5 Z"/></g>
<g><path style="opacity:1" fill="#3b3b3b" d="M 692.5,1268.5 C 693.903,1271.91 694.57,1275.58 694.5,1279.5C 693.778,1279.08 693.278,1278.42 693,1277.5C 692.502,1274.52 692.335,1271.52 692.5,1268.5 Z"/></g>
<g><path style="opacity:1" fill="#a2a2a2" d="M 732.5,1274.5 C 734.472,1277.08 735.472,1280.08 735.5,1283.5C 733.69,1280.86 732.69,1277.86 732.5,1274.5 Z"/></g>
<g><path style="opacity:1" fill="#494949" d="M 984.5,1277.5 C 986.065,1279.51 987.065,1281.84 987.5,1284.5C 985.166,1282.82 984.166,1280.49 984.5,1277.5 Z"/></g>
<g><path style="opacity:1" fill="#2e2e2e" d="M 337.5,1270.5 C 338.167,1273.17 338.833,1275.83 339.5,1278.5C 339.5,1279.83 339.5,1281.17 339.5,1282.5C 339.5,1284.83 339.5,1287.17 339.5,1289.5C 338.004,1283.39 337.337,1277.06 337.5,1270.5 Z"/></g>
<g><path style="opacity:1" fill="#535353" d="M 694.5,1279.5 C 695.889,1284.27 696.556,1289.27 696.5,1294.5C 695.111,1289.73 694.444,1284.73 694.5,1279.5 Z"/></g>
<g><path style="opacity:1" fill="#6f6f6f" d="M 987.5,1284.5 C 988.906,1284.97 989.573,1285.97 989.5,1287.5C 988.094,1287.03 987.427,1286.03 987.5,1284.5 Z"/></g>
<g><path style="opacity:1" fill="#8c8c8c" d="M 538.5,1284.5 C 538.665,1287.52 538.498,1290.52 538,1293.5C 537.722,1294.42 537.222,1295.08 536.5,1295.5C 536.808,1291.64 537.475,1287.97 538.5,1284.5 Z"/></g>
<g><path style="opacity:1" fill="#898989" d="M 212.5,1279.5 C 211.477,1285.35 210.143,1291.02 208.5,1296.5C 208.858,1292.49 209.358,1288.49 210,1284.5C 210.374,1282.51 211.207,1280.84 212.5,1279.5 Z"/></g>
<g><path style="opacity:1" fill="#dadada" d="M 637.5,1209.5 C 633.563,1209.21 629.73,1209.54 626,1210.5C 625.5,1294.17 625.333,1377.83 625.5,1461.5C 624.334,1377.67 624.168,1293.67 625,1209.5C 629.267,1208.18 633.434,1208.18 637.5,1209.5 Z"/></g>
<g><path style="opacity:1" fill="#9e9e9e" d="M 735.5,1283.5 C 738.471,1289.01 739.805,1295.01 739.5,1301.5C 737.159,1295.84 735.826,1289.84 735.5,1283.5 Z"/></g>
<g><path style="opacity:1" fill="#8a8a8a" d="M 991.5,1291.5 C 994.425,1294.48 996.092,1298.14 996.5,1302.5C 994.483,1299.1 992.816,1295.43 991.5,1291.5 Z"/></g>
<g><path style="opacity:1" fill="#868686" d="M 1040.5,1295.5 C 1042.07,1297.51 1043.07,1299.84 1043.5,1302.5C 1041.17,1300.82 1040.17,1298.49 1040.5,1295.5 Z"/></g>
<g><path style="opacity:1" fill="#8b8b8b" d="M 385.5,1292.5 C 387.145,1297.23 387.811,1302.23 387.5,1307.5C 386.111,1302.73 385.444,1297.73 385.5,1292.5 Z"/></g>
<g><path style="opacity:1" fill="#9c9c9c" d="M 497.5,1293.5 C 497.875,1298.91 496.875,1303.91 494.5,1308.5C 494.763,1303.23 495.763,1298.23 497.5,1293.5 Z"/></g>
<g><path style="opacity:1" fill="#adadad" d="M 208.5,1296.5 C 208.665,1299.85 208.498,1303.18 208,1306.5C 207.722,1307.42 207.222,1308.08 206.5,1308.5C 206.344,1304.24 207.011,1300.24 208.5,1296.5 Z"/></g>
<g><path style="opacity:1" fill="#262626" d="M 637.5,1209.5 C 638.5,1209.5 639.5,1209.5 640.5,1209.5C 641.5,1210.17 642.5,1210.83 643.5,1211.5C 637.907,1211.19 632.407,1211.53 627,1212.5C 626.5,1295.5 626.333,1378.5 626.5,1461.5C 626.167,1461.5 625.833,1461.5 625.5,1461.5C 625.333,1377.83 625.5,1294.17 626,1210.5C 629.73,1209.54 633.563,1209.21 637.5,1209.5 Z"/></g>
<g><path style="opacity:1" fill="#acacac" d="M 892.5,1222.5 C 893.222,1222.92 893.722,1223.58 894,1224.5C 894.667,1289.17 894.667,1353.83 894,1418.5C 893.768,1419.74 893.268,1420.74 892.5,1421.5C 892.5,1355.17 892.5,1288.83 892.5,1222.5 Z"/></g>
<g><path style="opacity:1" fill="#b3b3b3" d="M 408.5,1214.5 C 409.666,1295.67 409.832,1377 409,1458.5C 408.617,1459.06 408.117,1459.39 407.5,1459.5C 408.494,1377.87 408.828,1296.21 408.5,1214.5 Z"/></g>
<g><path style="opacity:1" fill="#6c6c6c" d="M 1044.5,1305.5 C 1045.91,1305.97 1046.57,1306.97 1046.5,1308.5C 1045.09,1308.03 1044.43,1307.03 1044.5,1305.5 Z"/></g>
<g><path style="opacity:1" fill="#595959" d="M 532.5,1306.5 C 532.573,1308.03 531.906,1309.03 530.5,1309.5C 530.427,1307.97 531.094,1306.97 532.5,1306.5 Z"/></g>
<g><path style="opacity:1" fill="#7e7e7e" d="M 530.5,1309.5 C 530.573,1311.03 529.906,1312.03 528.5,1312.5C 528.427,1310.97 529.094,1309.97 530.5,1309.5 Z"/></g>
<g><path style="opacity:1" fill="#5d5d5d" d="M 906.5,1225.5 C 906.667,1291.83 906.5,1358.17 906,1424.5C 905.79,1426.06 905.29,1427.39 904.5,1428.5C 904.5,1427.17 904.5,1425.83 904.5,1424.5C 905.163,1358.07 905.83,1291.74 906.5,1225.5 Z"/></g>
<g><path style="opacity:1" fill="#676767" d="M 528.5,1312.5 C 528.25,1314.67 527.25,1316.34 525.5,1317.5C 525.75,1315.33 526.75,1313.66 528.5,1312.5 Z"/></g>
<g><path style="opacity:1" fill="#818181" d="M 492.5,1313.5 C 492.573,1315.03 491.906,1316.03 490.5,1316.5C 490.427,1314.97 491.094,1313.97 492.5,1313.5 Z"/></g>
<g><path style="opacity:1" fill="#474747" d="M 251.5,1294.5 C 251.833,1294.5 252.167,1294.5 252.5,1294.5C 252.5,1322.17 252.5,1349.83 252.5,1377.5C 250.963,1362.36 250.296,1347.03 250.5,1331.5C 250.541,1319.14 250.874,1306.81 251.5,1294.5 Z"/></g>
<g><path style="opacity:1" fill="#676767" d="M 1049.5,1315.5 C 1050.91,1315.97 1051.57,1316.97 1051.5,1318.5C 1050.09,1318.03 1049.43,1317.03 1049.5,1315.5 Z"/></g>
<g><path style="opacity:1" fill="#b4b4b4" d="M 696.5,1309.5 C 697.222,1309.92 697.722,1310.58 698,1311.5C 698.667,1336.83 698.667,1362.17 698,1387.5C 697.809,1389.71 697.309,1391.71 696.5,1393.5C 696.5,1365.5 696.5,1337.5 696.5,1309.5 Z"/></g>
<g><path style="opacity:1" fill="#cdcdcd" d="M 968.5,1245.5 C 967.167,1278.66 966.5,1312.16 966.5,1346C 966.5,1379.67 966.833,1413.17 967.5,1446.5C 967.629,1448.22 967.962,1449.88 968.5,1451.5C 967.034,1450.65 966.2,1449.32 966,1447.5C 965.5,1379.5 965.333,1311.5 965.5,1243.5C 967.179,1243.29 968.179,1243.95 968.5,1245.5 Z"/></g>
<g><path style="opacity:1" fill="#8f8f8f" d="M 486.5,1321.5 C 484.757,1324.56 482.09,1326.56 478.5,1327.5C 480.86,1325.15 483.527,1323.15 486.5,1321.5 Z"/></g>
<g><path style="opacity:1" fill="#bababa" d="M 339.5,1282.5 C 341.017,1287.59 341.85,1292.92 342,1298.5C 342.667,1317.17 342.667,1335.83 342,1354.5C 341.79,1356.06 341.29,1357.39 340.5,1358.5C 340.831,1335.33 340.498,1312.33 339.5,1289.5C 339.5,1287.17 339.5,1284.83 339.5,1282.5 Z"/></g>
<g><path style="opacity:1" fill="#353535" d="M 519.5,1323.5 C 517.101,1328.53 513.101,1331.19 507.5,1331.5C 511.202,1328.48 515.202,1325.81 519.5,1323.5 Z"/></g>
<g><path style="opacity:1" fill="#919191" d="M 1051.5,1318.5 C 1053.75,1322.68 1055.75,1327.01 1057.5,1331.5C 1053.6,1328.04 1051.6,1323.71 1051.5,1318.5 Z"/></g>
<g><path style="opacity:1" fill="#5d5d5d" d="M 387.5,1309.5 C 388.222,1309.92 388.722,1310.58 389,1311.5C 389.826,1323.01 389.659,1334.34 388.5,1345.5C 388.749,1333.47 388.416,1321.47 387.5,1309.5 Z"/></g>
<g><path style="opacity:1" fill="#a7a7a7" d="M 476.5,1328.5 C 473.281,1330.72 469.614,1331.88 465.5,1332C 459.984,1332.82 454.65,1332.65 449.5,1331.5C 454.363,1331.82 459.03,1331.49 463.5,1330.5C 467.906,1330.25 472.24,1329.59 476.5,1328.5 Z"/></g>
<g><path style="opacity:1" fill="#757575" d="M 968.5,1245.5 C 968.5,1245.83 968.5,1246.17 968.5,1246.5C 967.501,1313 967.168,1379.66 967.5,1446.5C 966.833,1413.17 966.5,1379.67 966.5,1346C 966.5,1312.16 967.167,1278.66 968.5,1245.5 Z"/></g>
<g><path style="opacity:1" fill="#4c4c4c" d="M 507.5,1331.5 C 504.947,1333.58 501.947,1334.92 498.5,1335.5C 501.053,1333.42 504.053,1332.08 507.5,1331.5 Z"/></g>
<g><path style="opacity:1" fill="#797979" d="M 741.5,1307.5 C 742.753,1324.68 742.753,1342.01 741.5,1359.5C 741.167,1359.5 740.833,1359.5 740.5,1359.5C 741.36,1342.18 741.693,1324.85 741.5,1307.5 Z"/></g>
<g><path style="opacity:1" fill="#5e5e5e" d="M 494.5,1336.5 C 493.529,1337.96 493.862,1339.3 495.5,1340.5C 493.748,1340.58 492.748,1339.75 492.5,1338C 492.836,1336.97 493.503,1336.47 494.5,1336.5 Z"/></g>
<g><path style="opacity:1" fill="#b2b2b2" d="M 449.5,1341.5 C 452.304,1340.36 455.304,1340.2 458.5,1341C 460.141,1342.13 461.141,1343.63 461.5,1345.5C 460.5,1344.83 459.5,1344.17 458.5,1343.5C 458.389,1342.88 458.056,1342.38 457.5,1342C 454.854,1341.5 452.187,1341.34 449.5,1341.5 Z"/></g>
<g><path style="opacity:1" fill="#9d9d9d" d="M 495.5,1340.5 C 497.914,1341.91 499.581,1343.91 500.5,1346.5C 497.739,1345.41 496.073,1343.41 495.5,1340.5 Z"/></g>
<g><path style="opacity:1" fill="#131313" d="M 581.5,1212.5 C 582.167,1212.5 582.5,1212.83 582.5,1213.5C 583.494,1295.13 583.828,1376.79 583.5,1458.5C 583.672,1459.49 583.338,1460.16 582.5,1460.5C 582.822,1377.81 582.489,1295.14 581.5,1212.5 Z"/></g>
<g><path style="opacity:1" fill="#707070" d="M 206.5,1309.5 C 205.563,1325.14 205.229,1340.8 205.5,1356.5C 204.339,1341.67 204.172,1326.67 205,1311.5C 205.278,1310.58 205.778,1309.92 206.5,1309.5 Z"/></g>
<g><path style="opacity:1" fill="#868686" d="M 1078.5,1222.5 C 1079.31,1265.67 1079.98,1309 1080.5,1352.5C 1080.17,1360.17 1079.83,1367.83 1079.5,1375.5C 1078.89,1375.38 1078.56,1375.04 1078.5,1374.5C 1078.59,1324.01 1078.59,1273.34 1078.5,1222.5 Z"/></g>
<g><path style="opacity:1" fill="#6d6d6d" d="M 1018.5,1347.5 C 1019.91,1347.97 1020.57,1348.97 1020.5,1350.5C 1019.09,1350.03 1018.43,1349.03 1018.5,1347.5 Z"/></g>
<g><path style="opacity:1" fill="#151515" d="M 449.5,1341.5 C 452.187,1341.34 454.854,1341.5 457.5,1342C 458.056,1342.38 458.389,1342.88 458.5,1343.5C 455.904,1342.73 453.237,1342.4 450.5,1342.5C 450.333,1380.5 450.5,1418.5 451,1456.5C 451.352,1458.25 451.852,1459.91 452.5,1461.5C 451.069,1461.12 450.236,1460.12 450,1458.5C 449.5,1419.5 449.333,1380.5 449.5,1341.5 Z"/></g>
<g><path style="opacity:1" fill="#818181" d="M 1064.5,1346.5 C 1066.25,1348.03 1067.25,1350.03 1067.5,1352.5C 1065.75,1350.97 1064.75,1348.97 1064.5,1346.5 Z"/></g>
<g><path style="opacity:1" fill="#777777" d="M 465.5,1352.5 C 467.729,1355.19 469.396,1358.19 470.5,1361.5C 470.993,1363.81 471.326,1366.14 471.5,1368.5C 469.325,1363.32 467.325,1357.99 465.5,1352.5 Z"/></g>
<g><path style="opacity:1" fill="#9e9e9e" d="M 1067.5,1352.5 C 1069.67,1355.52 1071.34,1358.85 1072.5,1362.5C 1069.29,1360.08 1067.62,1356.75 1067.5,1352.5 Z"/></g>
<g><path style="opacity:1" fill="#707070" d="M 1020.5,1351.5 C 1022.94,1353.12 1024.28,1355.45 1024.5,1358.5C 1022.06,1356.88 1020.72,1354.55 1020.5,1351.5 Z"/></g>
<g><path style="opacity:1" fill="#787878" d="M 811.5,1212.5 C 811.539,1213.76 811.039,1214.76 810,1215.5C 809.183,1287.52 809.349,1359.52 810.5,1431.5C 809.71,1430.39 809.21,1429.06 809,1427.5C 808.333,1356.5 808.333,1285.5 809,1214.5C 809.708,1213.62 810.542,1212.95 811.5,1212.5 Z"/></g>
<g><path style="opacity:1" fill="#9c9c9c" d="M 387.5,1360.5 C 387.283,1364.71 386.617,1368.71 385.5,1372.5C 385.334,1368.15 385.501,1363.82 386,1359.5C 386.383,1360.06 386.883,1360.39 387.5,1360.5 Z"/></g>
<g><path style="opacity:1" fill="#757575" d="M 508.5,1360.5 C 509.871,1362.94 510.871,1365.6 511.5,1368.5C 509.345,1366.38 508.345,1363.72 508.5,1360.5 Z"/></g>
<g><path style="opacity:1" fill="#797979" d="M 1025.5,1361.5 C 1026.91,1361.97 1027.57,1362.97 1027.5,1364.5C 1026.09,1364.03 1025.43,1363.03 1025.5,1361.5 Z"/></g>
<g><path style="opacity:1" fill="#c0c0c0" d="M 470.5,1361.5 C 473.122,1368.63 475.456,1375.96 477.5,1383.5C 476.883,1383.39 476.383,1383.06 476,1382.5C 474.478,1377.71 472.978,1373.05 471.5,1368.5C 471.326,1366.14 470.993,1363.81 470.5,1361.5 Z"/></g>
<g><path style="opacity:1" fill="#4f4f4f" d="M 740.5,1359.5 C 740.833,1359.5 741.167,1359.5 741.5,1359.5C 741.938,1365.87 740.938,1371.87 738.5,1377.5C 738.5,1377.17 738.5,1376.83 738.5,1376.5C 739.354,1370.86 740.02,1365.19 740.5,1359.5 Z"/></g>
<g><path style="opacity:1" fill="#3f3f3f" d="M 205.5,1358.5 C 206.458,1363.66 207.125,1368.99 207.5,1374.5C 205.554,1369.6 204.887,1364.27 205.5,1358.5 Z"/></g>
<g><path style="opacity:1" fill="#767676" d="M 512.5,1372.5 C 514.293,1374.43 515.293,1376.76 515.5,1379.5C 513.166,1377.82 512.166,1375.49 512.5,1372.5 Z"/></g>
<g><path style="opacity:1" fill="#797979" d="M 1031.5,1373.5 C 1032.91,1373.97 1033.57,1374.97 1033.5,1376.5C 1032.09,1376.03 1031.43,1375.03 1031.5,1373.5 Z"/></g>
<g><path style="opacity:1" fill="#8e8e8e" d="M 385.5,1372.5 C 385.946,1375.01 385.28,1377.01 383.5,1378.5C 383.259,1376.1 383.926,1374.1 385.5,1372.5 Z"/></g>
<g><path style="opacity:1" fill="#bbbbbb" d="M 738.5,1376.5 C 738.5,1376.83 738.5,1377.17 738.5,1377.5C 738.5,1378.5 738.5,1379.5 738.5,1380.5C 737.232,1382.91 736.565,1385.57 736.5,1388.5C 736.167,1388.5 735.833,1388.5 735.5,1388.5C 735.636,1385.65 735.969,1382.82 736.5,1380C 736.608,1378.32 737.275,1377.15 738.5,1376.5 Z"/></g>
<g><path style="opacity:1" fill="#616161" d="M 515.5,1381.5 C 517.104,1382.29 517.771,1383.62 517.5,1385.5C 516.326,1384.49 515.66,1383.15 515.5,1381.5 Z"/></g>
<g><path style="opacity:1" fill="#434343" d="M 738.5,1380.5 C 738.706,1383.5 738.04,1386.16 736.5,1388.5C 736.565,1385.57 737.232,1382.91 738.5,1380.5 Z"/></g>
<g><path style="opacity:1" fill="#8c8c8c" d="M 208.5,1380.5 C 209.924,1382.51 210.59,1384.85 210.5,1387.5C 208.837,1385.56 208.171,1383.23 208.5,1380.5 Z"/></g>
<g><path style="opacity:1" fill="#9b9b9b" d="M 252.5,1379.5 C 253.422,1383.99 254.089,1388.66 254.5,1393.5C 253.778,1393.08 253.278,1392.42 253,1391.5C 252.501,1387.51 252.334,1383.51 252.5,1379.5 Z"/></g>
<g><path style="opacity:1" fill="#848484" d="M 480.5,1391.5 C 481.924,1393.51 482.59,1395.85 482.5,1398.5C 481.076,1396.49 480.41,1394.15 480.5,1391.5 Z"/></g>
<g><path style="opacity:1" fill="#bebebe" d="M 210.5,1388.5 C 212.902,1393.1 214.235,1398.1 214.5,1403.5C 212.722,1398.73 211.389,1393.73 210.5,1388.5 Z"/></g>
<g><path style="opacity:1" fill="#606060" d="M 339.5,1389.5 C 339.698,1394.75 339.031,1399.75 337.5,1404.5C 337.334,1400.49 337.501,1396.49 338,1392.5C 338.232,1391.26 338.732,1390.26 339.5,1389.5 Z"/></g>
<g><path style="opacity:1" fill="#535353" d="M 482.5,1398.5 C 483.5,1400.5 484.5,1402.5 485.5,1404.5C 485.629,1406.22 485.962,1407.88 486.5,1409.5C 484.01,1406.37 482.677,1402.71 482.5,1398.5 Z"/></g>
<g><path style="opacity:1" fill="#757575" d="M 1044.5,1399.5 C 1045.91,1399.97 1046.57,1400.97 1046.5,1402.5C 1045.09,1402.03 1044.43,1401.03 1044.5,1399.5 Z"/></g>
<g><path style="opacity:1" fill="#656565" d="M 521.5,1397.5 C 523.245,1399.03 524.245,1401.03 524.5,1403.5C 522.755,1401.97 521.755,1399.97 521.5,1397.5 Z"/></g>
<g><path style="opacity:1" fill="#6a6a6a" d="M 378.5,1401.5 C 377.917,1404.95 376.584,1407.95 374.5,1410.5C 375.083,1407.05 376.416,1404.05 378.5,1401.5 Z"/></g>
<g><path style="opacity:1" fill="#484848" d="M 1046.5,1402.5 C 1048.07,1404.51 1049.07,1406.84 1049.5,1409.5C 1047.17,1407.82 1046.17,1405.49 1046.5,1402.5 Z"/></g>
<g><path style="opacity:1" fill="#c3c3c3" d="M 485.5,1404.5 C 489.043,1409.45 491.043,1415.12 491.5,1421.5C 489.473,1417.78 487.806,1413.78 486.5,1409.5C 485.962,1407.88 485.629,1406.22 485.5,1404.5 Z"/></g>
<g><path style="opacity:1" fill="#434343" d="M 193.5,1470.5 C 193.667,1447.83 193.5,1425.16 193,1402.5C 191.961,1403.24 191.461,1404.24 191.5,1405.5C 191.047,1407.57 190.047,1409.23 188.5,1410.5C 189.137,1406.74 190.637,1403.41 193,1400.5C 193.333,1400.83 193.667,1401.17 194,1401.5C 194.83,1424.67 194.663,1447.67 193.5,1470.5 Z"/></g>
<g><path style="opacity:1" fill="#9a9a9a" d="M 255.5,1406.5 C 257.695,1411.43 259.029,1416.77 259.5,1422.5C 256.535,1417.8 255.202,1412.47 255.5,1406.5 Z"/></g>
<g><path style="opacity:1" fill="#7c7c7c" d="M 524.5,1404.5 C 528.137,1411.4 530.804,1418.74 532.5,1426.5C 529.257,1419.44 526.59,1412.11 524.5,1404.5 Z"/></g>
<g><path style="opacity:1" fill="#656565" d="M 728.5,1409.5 C 728.245,1411.97 727.245,1413.97 725.5,1415.5C 725.755,1413.03 726.755,1411.03 728.5,1409.5 Z"/></g>
<g><path style="opacity:1" fill="#5b5b5b" d="M 1050.5,1411.5 C 1052.94,1413.12 1054.28,1415.45 1054.5,1418.5C 1052.06,1416.88 1050.72,1414.55 1050.5,1411.5 Z"/></g>
<g><path style="opacity:1" fill="#696969" d="M 187.5,1413.5 C 186.871,1416.4 185.871,1419.06 184.5,1421.5C 184.345,1418.28 185.345,1415.62 187.5,1413.5 Z"/></g>
<g><path style="opacity:1" fill="#606060" d="M 217.5,1413.5 C 219.584,1416.05 220.917,1419.05 221.5,1422.5C 219.416,1419.95 218.083,1416.95 217.5,1413.5 Z"/></g>
<g><path style="opacity:1" fill="#7d7d7d" d="M 336.5,1411.5 C 336.884,1415.49 336.217,1419.16 334.5,1422.5C 334.808,1418.64 335.475,1414.97 336.5,1411.5 Z"/></g>
<g><path style="opacity:1" fill="#7b7b7b" d="M 725.5,1415.5 C 724.66,1417.85 723.326,1419.85 721.5,1421.5C 721.845,1418.8 723.178,1416.8 725.5,1415.5 Z"/></g>
<g><path style="opacity:1" fill="#454545" d="M 371.5,1417.5 C 371.834,1420.49 370.834,1422.82 368.5,1424.5C 368.935,1421.84 369.935,1419.51 371.5,1417.5 Z"/></g>
<g><path style="opacity:1" fill="#a2a2a2" d="M 690.5,1418.5 C 690.357,1421.39 689.357,1423.72 687.5,1425.5C 687.759,1422.73 688.759,1420.39 690.5,1418.5 Z"/></g>
<g><path style="opacity:1" fill="#4d4d4d" d="M 368.5,1424.5 C 368.245,1426.97 367.245,1428.97 365.5,1430.5C 365.025,1427.69 366.025,1425.69 368.5,1424.5 Z"/></g>
<g><path style="opacity:1" fill="#a0a0a0" d="M 532.5,1426.5 C 534.074,1428.1 534.741,1430.1 534.5,1432.5C 532.926,1430.9 532.259,1428.9 532.5,1426.5 Z"/></g>
<g><path style="opacity:1" fill="#7b7b7b" d="M 1058.5,1427.5 C 1059.91,1427.97 1060.57,1428.97 1060.5,1430.5C 1059.09,1430.03 1058.43,1429.03 1058.5,1427.5 Z"/></g>
<g><path style="opacity:1" fill="#858585" d="M 182.5,1427.5 C 181.921,1430.33 180.588,1432.66 178.5,1434.5C 178.736,1431.38 180.069,1429.05 182.5,1427.5 Z"/></g>
<g><path style="opacity:1" fill="#747474" d="M 687.5,1425.5 C 687.245,1427.97 686.245,1429.97 684.5,1431.5C 684.755,1429.03 685.755,1427.03 687.5,1425.5 Z"/></g>
<g><path style="opacity:1" fill="#999999" d="M 904.5,1424.5 C 904.5,1425.83 904.5,1427.17 904.5,1428.5C 904.397,1431.64 903.397,1434.3 901.5,1436.5C 902.51,1432.39 903.51,1428.39 904.5,1424.5 Z"/></g>
<g><path style="opacity:1" fill="#505050" d="M 715.5,1431.5 C 714.92,1433.75 713.587,1435.42 711.5,1436.5C 712.08,1434.25 713.413,1432.58 715.5,1431.5 Z"/></g>
<g><path style="opacity:1" fill="#9f9f9f" d="M 261.5,1431.5 C 263.074,1433.1 263.741,1435.1 263.5,1437.5C 261.926,1435.9 261.259,1433.9 261.5,1431.5 Z"/></g>
<g><path style="opacity:1" fill="#b8b8b8" d="M 493.5,1427.5 C 495.245,1430.16 496.911,1433 498.5,1436C 499.871,1438.32 500.538,1440.82 500.5,1443.5C 497.734,1438.48 495.401,1433.15 493.5,1427.5 Z"/></g>
<g><path style="opacity:1" fill="#848484" d="M 891.5,1429.5 C 891.741,1431.9 891.074,1433.9 889.5,1435.5C 889.259,1433.1 889.926,1431.1 891.5,1429.5 Z"/></g>
<g><path style="opacity:1" fill="#8d8d8d" d="M 810.5,1431.5 C 812.679,1435.2 814.345,1439.2 815.5,1443.5C 812.293,1440.23 810.627,1436.23 810.5,1431.5 Z"/></g>
<g><path style="opacity:1" fill="#8e8e8e" d="M 889.5,1435.5 C 889.975,1438.31 888.975,1440.31 886.5,1441.5C 886.755,1439.03 887.755,1437.03 889.5,1435.5 Z"/></g>
<g><path style="opacity:1" fill="#7a7a7a" d="M 1063.5,1437.5 C 1064.91,1437.97 1065.57,1438.97 1065.5,1440.5C 1064.09,1440.03 1063.43,1439.03 1063.5,1437.5 Z"/></g>
<g><path style="opacity:1" fill="#ababab" d="M 177.5,1437.5 C 177.408,1439.85 176.408,1441.51 174.5,1442.5C 174.75,1440.33 175.75,1438.66 177.5,1437.5 Z"/></g>
<g><path style="opacity:1" fill="#8e8e8e" d="M 265.5,1440.5 C 266.537,1441.93 267.204,1443.6 267.5,1445.5C 265.787,1444.36 265.12,1442.7 265.5,1440.5 Z"/></g>
<g><path style="opacity:1" fill="#a5a5a5" d="M 536.5,1437.5 C 538.584,1440.05 539.917,1443.05 540.5,1446.5C 539.542,1446.05 538.708,1445.38 538,1444.5C 537.56,1442.13 537.06,1439.8 536.5,1437.5 Z"/></g>
<g><path style="opacity:1" fill="#bbbbbb" d="M 680.5,1437.5 C 680.322,1438.69 679.989,1439.86 679.5,1441C 677.315,1442.85 675.482,1445.02 674,1447.5C 672.275,1448.46 670.441,1449.13 668.5,1449.5C 672.833,1445.83 676.833,1441.83 680.5,1437.5 Z"/></g>
<g><path style="opacity:1" fill="#696969" d="M 815.5,1443.5 C 816.906,1443.97 817.573,1444.97 817.5,1446.5C 816.094,1446.03 815.427,1445.03 815.5,1443.5 Z"/></g>
<g><path style="opacity:1" fill="#494949" d="M 900.5,1441.5 C 899.589,1445.25 897.589,1448.25 894.5,1450.5C 896.14,1447.22 898.14,1444.22 900.5,1441.5 Z"/></g>
<g><path style="opacity:1" fill="#9b9b9b" d="M 174.5,1442.5 C 173.55,1446.41 171.217,1449.08 167.5,1450.5C 169.843,1447.79 172.177,1445.13 174.5,1442.5 Z"/></g>
<g><path style="opacity:1" fill="#5e5e5e" d="M 236.5,1446.5 C 238.262,1447.26 239.262,1448.6 239.5,1450.5C 237.738,1449.74 236.738,1448.4 236.5,1446.5 Z"/></g>
<g><path style="opacity:1" fill="#707070" d="M 701.5,1446.5 C 699.853,1448.33 697.853,1449.66 695.5,1450.5C 696.802,1448.18 698.802,1446.84 701.5,1446.5 Z"/></g>
<g><path style="opacity:1" fill="#434343" d="M 774.5,1442.5 C 776.245,1444.03 777.245,1446.03 777.5,1448.5C 775.755,1446.97 774.755,1444.97 774.5,1442.5 Z"/></g>
<g><path style="opacity:1" fill="#7e7e7e" d="M 817.5,1446.5 C 818.906,1446.97 819.573,1447.97 819.5,1449.5C 818.094,1449.03 817.427,1448.03 817.5,1446.5 Z"/></g>
<g><path style="opacity:1" fill="#383838" d="M 1065.5,1440.5 C 1067.2,1443.26 1068.54,1446.26 1069.5,1449.5C 1066.53,1447.38 1065.2,1444.38 1065.5,1440.5 Z"/></g>
<g><path style="opacity:1" fill="#9a9a9a" d="M 819.5,1449.5 C 821.5,1450.83 823.167,1452.5 824.5,1454.5C 821.833,1453.83 820.167,1452.17 819.5,1449.5 Z"/></g>
<g><path style="opacity:1" fill="#999999" d="M 886.5,1441.5 C 883.552,1447.45 879.219,1452.11 873.5,1455.5C 877.861,1450.81 882.195,1446.14 886.5,1441.5 Z"/></g>
<g><path style="opacity:1" fill="#969696" d="M 269.5,1449.5 C 271.587,1450.58 272.92,1452.25 273.5,1454.5C 271.413,1453.42 270.08,1451.75 269.5,1449.5 Z"/></g>
<g><path style="opacity:1" fill="#545454" d="M 779.5,1450.5 C 782.5,1452.83 785.167,1455.5 787.5,1458.5C 783.833,1456.83 781.167,1454.17 779.5,1450.5 Z"/></g>
<g><path style="opacity:1" fill="#727272" d="M 1069.5,1449.5 C 1070.91,1449.97 1071.57,1450.97 1071.5,1452.5C 1070.09,1452.03 1069.43,1451.03 1069.5,1449.5 Z"/></g>
<g><path style="opacity:1" fill="#545454" d="M 354.5,1446.5 C 352.478,1450.52 349.478,1453.52 345.5,1455.5C 347.999,1452.83 350.332,1450 352.5,1447C 353.094,1446.54 353.761,1446.37 354.5,1446.5 Z"/></g>
<g><path style="opacity:1" fill="#bbbbbb" d="M 325.5,1446.5 C 324.629,1449.11 323.963,1451.78 323.5,1454.5C 322.5,1454.5 321.5,1454.5 320.5,1454.5C 321.669,1451.49 323.336,1448.82 325.5,1446.5 Z"/></g>
<g><path style="opacity:1" fill="#adadad" d="M 665.5,1451.5 C 664.393,1453.97 662.393,1454.97 659.5,1454.5C 661.181,1452.99 663.181,1451.99 665.5,1451.5 Z"/></g>
<g><path style="opacity:1" fill="#bebebe" d="M 542.5,1451.5 C 544.055,1454.4 546.055,1457.07 548.5,1459.5C 544.588,1458.26 542.588,1455.59 542.5,1451.5 Z"/></g>
<g><path style="opacity:1" fill="#858585" d="M 968.5,1452.5 C 969.906,1452.97 970.573,1453.97 970.5,1455.5C 969.094,1455.03 968.427,1454.03 968.5,1452.5 Z"/></g>
<g><path style="opacity:1" fill="#878787" d="M 245.5,1456.5 C 247.404,1456.74 248.738,1457.74 249.5,1459.5C 247.596,1459.26 246.262,1458.26 245.5,1456.5 Z"/></g>
<g><path style="opacity:1" fill="#7f7f7f" d="M 161.5,1455.5 C 158.691,1457.9 155.358,1459.23 151.5,1459.5C 154.518,1457.6 157.851,1456.27 161.5,1455.5 Z"/></g>
<g><path style="opacity:1" fill="#929292" d="M 873.5,1455.5 C 872.942,1456.79 871.942,1457.62 870.5,1458C 867.647,1459.43 864.647,1460.26 861.5,1460.5C 865.203,1458.32 869.203,1456.65 873.5,1455.5 Z"/></g>
<g><path style="opacity:1" fill="#5e5e5e" d="M 970.5,1455.5 C 973.432,1456.8 975.766,1458.8 977.5,1461.5C 975.405,1460.59 973.405,1459.42 971.5,1458C 970.748,1457.33 970.414,1456.5 970.5,1455.5 Z"/></g>
<g><path style="opacity:1" fill="#8f8f8f" d="M 652.5,1457.5 C 650.064,1458.87 647.397,1459.87 644.5,1460.5C 646.617,1458.35 649.284,1457.35 652.5,1457.5 Z"/></g>
<g><path style="opacity:1" fill="#696969" d="M 829.5,1457.5 C 831.544,1458.51 833.544,1459.51 835.5,1460.5C 832.687,1460.98 830.687,1459.98 829.5,1457.5 Z"/></g>
<g><path style="opacity:1" fill="#bcbcbc" d="M 952.5,1454.5 C 951.962,1456.12 951.629,1457.78 951.5,1459.5C 949.784,1459.63 948.117,1459.96 946.5,1460.5C 948.215,1458.12 950.215,1456.12 952.5,1454.5 Z"/></g>
<g><path style="opacity:1" fill="#515151" d="M 507.5,1458.5 C 509.833,1460.17 511.833,1462.17 513.5,1464.5C 510.5,1463.5 508.5,1461.5 507.5,1458.5 Z"/></g>
<g><path style="opacity:1" fill="#5e5e5e" d="M 887.5,1458.5 C 886.292,1461.04 884.292,1462.38 881.5,1462.5C 883.223,1460.78 885.223,1459.45 887.5,1458.5 Z"/></g>
<g><path style="opacity:1" fill="#707070" d="M 151.5,1459.5 C 150.5,1460.17 149.5,1460.83 148.5,1461.5C 146.833,1461.5 145.167,1461.5 143.5,1461.5C 145.905,1460.23 148.572,1459.57 151.5,1459.5 Z"/></g>
<g><path style="opacity:1" fill="#363636" d="M 688.5,1455.5 C 686.138,1457.24 683.805,1459.08 681.5,1461C 680.207,1461.49 678.873,1461.66 677.5,1461.5C 680.388,1458.22 684.055,1456.22 688.5,1455.5 Z"/></g>
<g><path style="opacity:1" fill="#8a8a8a" d="M 249.5,1459.5 C 251.749,1460.08 253.415,1461.41 254.5,1463.5C 252.251,1462.92 250.585,1461.59 249.5,1459.5 Z"/></g>
<g><path style="opacity:1" fill="#757575" d="M 313.5,1459.5 C 311.211,1461.39 308.545,1462.72 305.5,1463.5C 305.5,1463.17 305.5,1462.83 305.5,1462.5C 307.936,1461.13 310.603,1460.13 313.5,1459.5 Z"/></g>
<g><path style="opacity:1" fill="#6e6e6e" d="M 340.5,1460.5 C 339.341,1462.25 337.674,1463.25 335.5,1463.5C 336.659,1461.75 338.326,1460.75 340.5,1460.5 Z"/></g>
<g><path style="opacity:1" fill="#868686" d="M 641.5,1460.5 C 636.221,1462.31 630.888,1462.64 625.5,1461.5C 625.833,1461.5 626.167,1461.5 626.5,1461.5C 631.463,1460.75 636.463,1460.41 641.5,1460.5 Z"/></g>
<g><path style="opacity:1" fill="#7a7a7a" d="M 860.5,1460.5 C 860.389,1461.12 860.056,1461.62 859.5,1462C 852.654,1462.82 845.987,1462.65 839.5,1461.5C 846.535,1461.67 853.535,1461.34 860.5,1460.5 Z"/></g>
<g><path style="opacity:1" fill="#303030" d="M 284.5,1461.5 C 291.465,1462.34 298.465,1462.67 305.5,1462.5C 305.5,1462.83 305.5,1463.17 305.5,1463.5C 300.537,1464.5 295.537,1464.66 290.5,1464C 288.148,1463.76 286.148,1462.93 284.5,1461.5 Z"/></g>
<g><path style="opacity:1" fill="#545454" d="M 403.5,1462.5 C 398.637,1463.27 393.637,1463.93 388.5,1464.5C 388.611,1463.88 388.944,1463.38 389.5,1463C 394.155,1462.5 398.821,1462.33 403.5,1462.5 Z"/></g>
<g><path style="opacity:1" fill="#747474" d="M 550.5,1461.5 C 552.027,1461.43 553.027,1462.09 553.5,1463.5C 551.973,1463.57 550.973,1462.91 550.5,1461.5 Z"/></g>
<g><path style="opacity:1" fill="#5c5c5c" d="M 977.5,1461.5 C 980.992,1461.45 983.992,1462.45 986.5,1464.5C 983.873,1463.9 981.207,1463.4 978.5,1463C 977.944,1462.62 977.611,1462.12 977.5,1461.5 Z"/></g>
<g><path style="opacity:1" fill="#686868" d="M 1073.5,1457.5 C 1075.25,1459.03 1076.25,1461.03 1076.5,1463.5C 1074.75,1461.97 1073.75,1459.97 1073.5,1457.5 Z"/></g>
<g><path style="opacity:1" fill="#aeaeae" d="M 111.5,1221.5 C 111.5,1290.17 111.5,1358.83 111.5,1427.5C 111.5,1439.17 111.5,1450.83 111.5,1462.5C 115.486,1463.17 119.653,1463.5 124,1463.5C 130.731,1463.65 137.231,1462.98 143.5,1461.5C 145.167,1461.5 146.833,1461.5 148.5,1461.5C 145.132,1463.06 141.465,1463.89 137.5,1464C 128.506,1464.5 119.506,1464.67 110.5,1464.5C 110.167,1383.33 110.501,1302.33 111.5,1221.5 Z"/></g>
<g><path style="opacity:1" fill="#5f5f5f" d="M 143.5,1461.5 C 137.231,1462.98 130.731,1463.65 124,1463.5C 119.653,1463.5 115.486,1463.17 111.5,1462.5C 122.183,1462.57 132.85,1462.24 143.5,1461.5 Z"/></g>
<g><path style="opacity:1" fill="#5d5d5d" d="M 579.5,1462.5 C 577.852,1463.93 575.852,1464.76 573.5,1465C 571.963,1466.11 571.297,1467.61 571.5,1469.5C 570.113,1467.51 570.447,1465.68 572.5,1464C 574.813,1463.34 577.146,1462.84 579.5,1462.5 Z"/></g>
<g><path style="opacity:1" fill="#b8b8b8" d="M 675.5,1461.5 C 671.499,1463.59 667.165,1464.92 662.5,1465.5C 662.97,1464.31 663.97,1463.64 665.5,1463.5C 668.802,1462.62 672.135,1461.95 675.5,1461.5 Z"/></g>
<g><path style="opacity:1" fill="#6b6b6b" d="M 335.5,1463.5 C 335.027,1464.91 334.027,1465.57 332.5,1465.5C 332.973,1464.09 333.973,1463.43 335.5,1463.5 Z"/></g>
<g><path style="opacity:1" fill="#919191" d="M 946.5,1460.5 C 945.251,1462.14 943.584,1463.3 941.5,1464C 938.487,1464.5 935.487,1465 932.5,1465.5C 932.5,1467.17 932.5,1468.83 932.5,1470.5C 930.353,1469.07 930.02,1467.23 931.5,1465C 936.633,1463.92 941.633,1462.42 946.5,1460.5 Z"/></g>
<g><path style="opacity:1" fill="#707070" d="M 796.5,1464.5 C 799.1,1465.47 801.434,1466.8 803.5,1468.5C 800.454,1468.28 798.121,1466.94 796.5,1464.5 Z"/></g>
<g><path style="opacity:1" fill="#595959" d="M 881.5,1462.5 C 878.218,1466.64 873.885,1468.98 868.5,1469.5C 872.698,1466.98 877.032,1464.65 881.5,1462.5 Z"/></g>
<g><path style="opacity:1" fill="#4a4a4a" d="M 332.5,1465.5 C 331.514,1467.41 329.848,1468.41 327.5,1468.5C 328.659,1466.75 330.326,1465.75 332.5,1465.5 Z"/></g>
<g><path style="opacity:1" fill="#b6b6b6" d="M 515.5,1465.5 C 517.921,1466.89 520.588,1467.72 523.5,1468C 524.381,1468.71 525.047,1469.54 525.5,1470.5C 521.489,1469.96 518.156,1468.29 515.5,1465.5 Z"/></g>
<g><path style="opacity:1" fill="#4d4d4d" d="M 660.5,1466.5 C 658.898,1468.07 656.898,1468.74 654.5,1468.5C 654.5,1468.17 654.5,1467.83 654.5,1467.5C 656.435,1466.85 658.435,1466.52 660.5,1466.5 Z"/></g>
<g><path style="opacity:1" fill="#d5d5d5" d="M 193.5,1470.5 C 147.095,1470.83 100.761,1470.49 54.5,1469.5C 54.5,1468.17 54.5,1466.83 54.5,1465.5C 58.8244,1465.07 63.1578,1464.74 67.5,1464.5C 67.3893,1465.12 67.056,1465.62 66.5,1466C 63.1182,1466.18 59.7848,1466.68 56.5,1467.5C 101.495,1468.5 146.495,1468.83 191.5,1468.5C 192.769,1447.35 192.769,1426.35 191.5,1405.5C 191.461,1404.24 191.961,1403.24 193,1402.5C 193.5,1425.16 193.667,1447.83 193.5,1470.5 Z"/></g>
<g><path style="opacity:1" fill="#c5c5c5" d="M 654.5,1467.5 C 654.5,1467.83 654.5,1468.17 654.5,1468.5C 651.545,1469.16 648.545,1469.49 645.5,1469.5C 641.19,1470.08 636.857,1470.41 632.5,1470.5C 633.263,1469.73 634.263,1469.23 635.5,1469C 641.835,1468.44 648.168,1467.94 654.5,1467.5 Z"/></g>
<g><path style="opacity:1" fill="#a9a9a9" d="M 468.5,1464.5 C 469.461,1466.26 469.795,1468.26 469.5,1470.5C 464.833,1470.5 460.167,1470.5 455.5,1470.5C 459.634,1469.52 463.968,1469.18 468.5,1469.5C 468.5,1467.83 468.5,1466.17 468.5,1464.5 Z"/></g>
<g><path style="opacity:1" fill="#262626" d="M 54.5,1469.5 C 100.761,1470.49 147.095,1470.83 193.5,1470.5C 170.502,1471.17 147.336,1471.5 124,1471.5C 100.49,1471.5 77.3236,1470.83 54.5,1469.5 Z"/></g>
<g><path style="opacity:1" fill="#696969" d="M 265.5,1469.5 C 269.395,1470.46 273.061,1471.8 276.5,1473.5C 272.292,1473.32 268.626,1471.99 265.5,1469.5 Z"/></g>
<g><path style="opacity:1" fill="#3e3e3e" d="M 645.5,1469.5 C 644.391,1470.29 643.058,1470.79 641.5,1471C 618.33,1471.83 595.33,1471.66 572.5,1470.5C 592.5,1470.5 612.5,1470.5 632.5,1470.5C 636.857,1470.41 641.19,1470.08 645.5,1469.5 Z"/></g>
<g><path style="opacity:1" fill="#636363" d="M 324.5,1469.5 C 324.389,1470.12 324.056,1470.62 323.5,1471C 318.892,1472.49 314.226,1473.65 309.5,1474.5C 314.243,1472.39 319.243,1470.72 324.5,1469.5 Z"/></g>
<g><path style="opacity:1" fill="#6a6a6a" d="M 865.5,1470.5 C 862.191,1472.37 858.525,1473.37 854.5,1473.5C 854.611,1472.88 854.944,1472.38 855.5,1472C 858.827,1471.39 862.161,1470.89 865.5,1470.5 Z"/></g>
<g><path style="opacity:1" fill="#444444" d="M 932.5,1470.5 C 950.833,1470.5 969.167,1470.5 987.5,1470.5C 978.692,1471.83 969.525,1472.5 960,1472.5C 950.475,1472.5 941.308,1471.83 932.5,1470.5 Z"/></g>
<g><path style="opacity:1" fill="#444444" d="M 1090.5,1470.5 C 1089.51,1472.03 1088.01,1472.69 1086,1472.5C 1084.62,1472.49 1083.45,1472.15 1082.5,1471.5C 1085.24,1471.6 1087.9,1471.27 1090.5,1470.5 Z"/></g>
<g><path style="opacity:1" fill="#343434" d="M 308.5,1474.5 C 308.082,1475.22 307.416,1475.72 306.5,1476C 298.655,1476.82 290.989,1476.66 283.5,1475.5C 291.867,1475.7 300.2,1475.37 308.5,1474.5 Z"/></g>
</svg>
